<?xml version="1.0" encoding="UTF-8" standalone="no"?>
<!-- Created with Inkscape (http://www.inkscape.org/) -->

<svg
   width="210mm"
   height="297mm"
   viewBox="0 0 210 297"
   version="1.1"
   id="svg5"
   inkscape:version="1.1 (c68e22c387, 2021-05-23)"
   sodipodi:docname="highlight.svg"
   xmlns:inkscape="http://www.inkscape.org/namespaces/inkscape"
   xmlns:sodipodi="http://sodipodi.sourceforge.net/DTD/sodipodi-0.dtd"
   xmlns="http://www.w3.org/2000/svg"
   xmlns:svg="http://www.w3.org/2000/svg">
  <sodipodi:namedview
     id="namedview7"
     pagecolor="#ffffff"
     bordercolor="#666666"
     borderopacity="1.0"
     inkscape:pageshadow="2"
     inkscape:pageopacity="0.0"
     inkscape:pagecheckerboard="0"
     inkscape:document-units="mm"
     showgrid="false"
     inkscape:zoom="1.4681257"
     inkscape:cx="326.26634"
     inkscape:cy="430.14028"
     inkscape:window-width="1920"
     inkscape:window-height="1009"
     inkscape:window-x="1912"
     inkscape:window-y="-8"
     inkscape:window-maximized="1"
     inkscape:current-layer="layer1" />
  <defs
     id="defs2">
    <inkscape:path-effect
       effect="powerstroke"
       id="path-effect1577"
       is_visible="true"
       lpeversion="1"
       offset_points="0.2,0.072665997 | 28,0.072665997 | 55.8,0.072665997"
       not_jump="false"
       sort_points="true"
       interpolator_type="CentripetalCatmullRom"
       interpolator_beta="0.4"
       start_linecap_type="square"
       linejoin_type="miter"
       miter_limit="2.9"
       scale_width="0.8"
       end_linecap_type="zerowidth" />
    <inkscape:path-effect
       effect="spiro"
       id="path-effect1412"
       is_visible="true"
       lpeversion="1" />
    <inkscape:path-effect
       effect="spiro"
       id="path-effect1179"
       is_visible="true"
       lpeversion="1" />
    <inkscape:path-effect
       effect="roughen"
       id="path-effect971"
       is_visible="true"
       lpeversion="1.1"
       method="size"
       max_segment_size="19.368"
       segments="2"
       displace_x="10;1"
       displace_y="10;1"
       global_randomize="1;1"
       handles="along"
       shift_nodes="true"
       fixed_displacement="false"
       spray_tool_friendly="false" />
  </defs>
  <g
     inkscape:label="Capa 1"
     inkscape:groupmode="layer"
     id="layer1">
    <path
       id="path847"
       style="fill:#000000;fill-rule:nonzero;stroke:none;stroke-width:0.145332"
       d="m 99.581149,114.23435 c -0.103256,0.0402 -0.704552,0.27708 -1.558587,0.53316 -0.959109,0.2876 -3.617286,1.036 -7.865403,1.25811 -4.74839,0.24826 -10.285655,0.10358 -17.318609,-0.30185 -4.61925,-0.26625 -9.294195,-0.99496 -13.610335,-2.066 -1.99855,-0.49594 -3.893726,-1.05926 -5.617521,-1.66616 -1.654693,-0.58256 -3.144649,-1.20303 -4.392423,-1.83191 -1.18554,-0.59752 -2.27284,-1.12129 -3.100853,-1.56359 -0.413378,-0.22081 -0.779898,-0.43026 -1.093431,-0.63498 -0.308942,-0.20173 -0.566543,-0.39891 -0.768667,-0.59893 -0.199106,-0.19703 -0.343688,-0.3961 -0.431625,-0.60501 -0.04349,-0.1033 -0.07328,-0.20936 -0.08893,-0.31932 -0.01555,-0.10921 -0.01723,-0.22275 -0.0043,-0.34186 0.02569,-0.23596 0.108962,-0.49444 0.256924,-0.78499 0.146049,-0.2868 0.354374,-0.60343 0.630778,-0.95964 0.194605,-0.2508 0.44728,-0.493 0.75332,-0.72848 0.302276,-0.23259 0.655445,-0.45775 1.054034,-0.67761 0.784607,-0.43279 1.737218,-0.84079 2.811876,-1.24398 1.053737,-0.39534 2.204535,-0.77871 3.419287,-1.17698 1.174431,-0.38505 2.42289,-0.788569 3.62728,-1.210723 3.130109,-0.464853 5.571194,-1.214615 8.037623,-2.007222 2.344627,-0.753465 4.718776,-1.548507 7.629214,-2.051905 6.078329,-1.051322 12.633095,-1.898911 19.776522,-1.36289 5.255176,0.394333 10.014056,1.14703 14.152106,2.163518 4.04605,0.993887 7.48035,2.235927 10.16567,3.621847 1.32153,0.682055 2.46832,1.396885 3.40045,2.136255 0.92357,0.73258 1.63521,1.48832 2.09671,2.25832 0.22911,0.38227 0.39642,0.7678 0.4975,1.15557 0.10061,0.38599 0.13573,0.77464 0.10056,1.16516 -0.035,0.38888 -0.13981,0.78053 -0.32004,1.17407 -0.17952,0.39201 -0.43405,0.78623 -0.76944,1.18147 -0.92279,1.08745 -2.23045,2.44054 -3.94906,3.70975 -1.69399,1.25103 -3.80359,2.43276 -6.35685,3.19131 l -0.007,0.002 -0.006,0.004 c -0.57907,0.3483 -1.20961,0.61827 -1.88485,0.82399 -0.67311,0.20508 -1.39012,0.34617 -2.14416,0.43753 -1.5023,0.18202 -3.14548,0.16607 -4.87577,0.069 -1.71846,-0.0964 -3.518475,-0.27287 -5.33669,-0.40958 -1.806237,-0.13582 -3.635566,-0.23253 -5.413937,-0.16764 -3.475065,0.12678 -6.594582,0.56484 -9.80102,0.90661 -3.156615,0.33646 -6.368605,0.57522 -9.970195,0.29221 -7.435986,-0.58434 -14.439277,-2.14345 -19.753244,-3.7265 -2.738172,-0.94827 -4.964143,-1.76324 -6.757373,-2.58325 -0.893176,-0.40843 -1.679658,-0.81837 -2.370901,-1.24761 -0.689417,-0.4281 -1.283969,-0.87531 -1.795556,-1.35952 -0.545083,-0.51591 -0.97078,-1.04275 -1.271305,-1.57826 -0.299767,-0.53417 -0.474976,-1.07691 -0.520136,-1.62651 -0.04506,-0.5484 0.0392,-1.10553 0.260674,-1.66995 0.221182,-0.56366 0.579454,-1.13515 1.08326,-1.71227 0.497535,-0.56993 1.209518,-1.11955 2.084755,-1.64864 0.873682,-0.52814 1.907491,-1.034307 3.047773,-1.518796 2.277363,-0.967618 4.972787,-1.846004 7.651577,-2.638792 3.282273,-0.727896 6.117917,-1.578717 8.96082,-2.328705 2.839308,-0.749039 5.681971,-1.396355 8.980026,-1.71828 7.058507,-0.688977 14.45896,-0.160729 22.321929,0.469139 7.797603,0.624633 14.428683,1.754545 19.757073,3.406029 2.635,0.77376 5.07511,1.761283 7.11363,2.838123 1.02225,0.54 1.94321,1.102282 2.73754,1.671352 0.79624,0.57045 1.46438,1.14708 1.98004,1.71448 0.50651,0.55732 0.87242,1.11169 1.10578,1.66424 0.23386,0.55376 0.33498,1.10648 0.31085,1.66024 -0.0242,0.55547 -0.1745,1.11378 -0.44557,1.67677 -0.27199,0.5649 -0.6655,1.13434 -1.1748,1.70969 -0.52543,0.59357 -1.18092,1.17847 -1.95416,1.74715 -0.77596,0.57068 -1.66998,1.12465 -2.66945,1.65456 -2.01103,1.06626 -4.44606,2.03367 -7.20461,2.84575 -1.38495,0.45189 -2.88481,0.7766 -4.46984,1.01912 -1.59193,0.24358 -3.27191,0.40454 -5.0067,0.52708 -3.496325,0.24695 -7.220726,0.33984 -10.938303,0.62905 -3.731161,0.29026 -7.407613,0.92691 -11.024567,1.39699 -3.697317,0.48053 -7.399836,0.79896 -11.319099,0.48168 -4.024961,-0.32583 -7.747617,-1.16152 -11.126553,-2.12711 -3.399116,-0.97135 -6.562095,-2.1097 -9.285639,-2.99602 -2.597753,-1.52327 -5.164051,-2.65702 -7.306004,-3.63208 -1.095365,-0.49863 -2.087527,-0.95881 -2.950499,-1.41878 -0.870312,-0.46388 -1.600316,-0.923 -2.159704,-1.41119 -0.613882,-0.53574 -1.039762,-1.02018 -1.303322,-1.48273 -0.132646,-0.2328 -0.223995,-0.45976 -0.277434,-0.68454 -0.0537,-0.22589 -0.06931,-0.45038 -0.04948,-0.67721 0.01995,-0.22817 0.07582,-0.45948 0.165606,-0.69749 0.09032,-0.23942 0.214916,-0.48555 0.371611,-0.74175 0.316118,-0.51687 0.762415,-1.07395 1.317734,-1.69612 0.837185,-0.93797 1.887893,-2.086031 3.196653,-3.184715 1.341993,-1.126582 2.917613,-2.168262 4.751798,-2.865248 l 0.0074,-0.0028 0.0064,-0.0047 c 0.864187,-0.637204 1.741218,-1.088925 2.658006,-1.41689 0.904516,-0.323574 1.843765,-0.525443 2.849004,-0.66979 0.994665,-0.142829 2.038539,-0.227513 3.180175,-0.322597 1.11935,-0.09323 2.333933,-0.196606 3.64592,-0.376346 2.026714,-0.168659 4.776377,-0.34124 7.876901,-0.492544 3.028435,-0.147786 6.395167,-0.275333 9.68763,-0.35581 3.013902,-0.07364 6.143128,-0.293539 9.271182,-0.436944 3.065236,-0.140525 6.150319,-0.207149 9.090413,0.03303 8.109164,0.661981 14.559804,2.078324 20.332204,3.902805 2.51051,0.945045 5.00511,1.83884 7.13603,2.790287 1.06035,0.473443 2.03856,0.964366 2.89741,1.489144 0.85422,0.521946 1.59016,1.077246 2.1722,1.682376 0.55077,0.57264 0.91958,1.23295 1.12848,1.94079 0.2079,0.70441 0.25748,1.45629 0.16961,2.21452 -0.0874,0.75453 -0.31094,1.51438 -0.6487,2.23686 -0.33618,0.71909 -0.78522,1.40034 -1.32416,2.00022 -0.83405,0.92809 -1.94859,1.83499 -3.32201,2.6846 -1.36279,0.84304 -2.97952,1.62903 -4.82548,2.32133 -1.82115,0.7478 -3.95242,1.29309 -6.28152,1.75304 -2.31916,0.45798 -4.81187,0.82733 -7.38243,1.23071 -2.69473,0.24506 -5.680287,0.59611 -8.74815,0.92024 -3.046458,0.32188 -6.154606,0.61491 -9.063497,0.74039 -2.950286,0.12728 -5.814221,-0.064 -8.732157,-0.35301 -2.909607,-0.28819 -5.868622,-0.67336 -9.008112,-0.93137 -8.372676,-0.68744 -15.13003,-1.64564 -20.734607,-3.29344 -1.338785,-0.35085 -2.735853,-0.64957 -4.110992,-0.93811 -1.376539,-0.28883 -2.729969,-0.56722 -3.983012,-0.87723 -1.253637,-0.31015 -2.401892,-0.65079 -3.367037,-1.06266 -0.482504,-0.20591 -0.917838,-0.42903 -1.296895,-0.67413 -0.379209,-0.24519 -0.70085,-0.51157 -0.95694,-0.80351 -0.242091,-0.27601 -0.403263,-0.55521 -0.498027,-0.83634 -0.09476,-0.28113 -0.124146,-0.56724 -0.09906,-0.85834 0.02514,-0.29169 0.105075,-0.58949 0.230093,-0.89277 0.125105,-0.3035 0.294856,-0.61129 0.498404,-0.92237 0.407818,-0.62326 0.947642,-1.25428 1.526086,-1.88477 0.578619,-0.63068 1.193935,-1.25867 1.749649,-1.87475 0.436387,-0.48364 0.893083,-1.10108 1.386678,-1.77356 0.496209,-0.67605 1.030802,-1.4093 1.628296,-2.134116 0.598293,-0.72579 1.256698,-1.439409 1.996517,-2.072663 0.741298,-0.634518 1.562675,-1.186907 2.484897,-1.589796 l 0.02858,-0.01249 0.01916,-0.02475 c 0.742793,-0.959533 1.622279,-1.659506 2.607572,-2.183388 0.988616,-0.525649 2.086169,-0.875187 3.261766,-1.129777 1.179095,-0.255347 2.435898,-0.41504 3.738256,-0.561413 1.30711,-0.146907 2.657063,-0.280104 4.022567,-0.483034 l 0.0093,-0.0014 0.0091,-0.0028 c 2.462017,-0.748259 5.289395,-1.026206 8.275299,-1.105175 2.998923,-0.07931 6.190081,0.04231 9.311923,0.09399 6.243311,0.103405 12.477227,0.132249 18.643423,0.640313 8.622004,0.709821 16.003094,2.144058 21.752644,4.004579 2.93838,0.942212 5.4449,1.923367 7.49132,2.975931 1.03371,0.531684 1.94777,1.080454 2.73924,1.64995 0.79761,0.573914 1.46925,1.167834 2.01293,1.785014 0.5471,0.62107 0.94904,1.25289 1.21172,1.88729 0.2648,0.63951 0.38863,1.28287 0.37666,1.92354 -0.0121,0.64655 -0.16252,1.29363 -0.44991,1.93488 -0.29027,0.64771 -0.72047,1.28992 -1.28951,1.91936 -0.88601,0.9799 -1.76026,1.83042 -2.89676,2.62737 -1.15981,0.81329 -2.58571,1.56477 -4.52956,2.31424 -0.36905,0.17073 -0.79909,0.3398 -1.28741,0.50974 -0.49118,0.17094 -1.04023,0.34238 -1.63467,0.51309 -1.20014,0.34467 -2.58525,0.68636 -4.05447,1.01545 -2.99468,0.67076 -6.36338,1.2947 -9.31461,1.79737 -3.11352,0.38632 -5.993715,1.24264 -8.699016,2.00299 -2.85232,0.80167 -5.543656,1.50766 -8.441957,1.67569 -3.173936,0.18399 -6.346744,-0.16401 -9.422622,-0.59866 -3.314349,-0.46835 -6.349123,-1.00642 -9.595394,-1.273 -4.422406,-0.36343 -8.857545,-1.19393 -12.776216,-2.11086 -4.148472,-0.97071 -7.908548,-2.08378 -10.724234,-2.96388 -1.714961,-0.70492 -3.067538,-1.31808 -4.168979,-1.86853 -1.146571,-0.573 -2.030813,-1.08308 -2.75545,-1.55506 -0.756002,-0.49242 -1.352006,-0.9526 -1.876567,-1.3978 -0.546189,-0.46356 -1.044646,-0.93717 -1.542438,-1.40593 -0.653866,-0.61614 -1.256845,-1.14624 -1.751363,-1.63567 -0.260452,-0.25777 -0.489329,-0.50184 -0.685189,-0.7412 -0.202947,-0.24803 -0.367094,-0.48701 -0.491177,-0.72392 -0.128908,-0.24612 -0.213502,-0.48813 -0.253173,-0.73169 -0.04143,-0.25432 -0.03409,-0.51161 0.02398,-0.77727 0.06111,-0.27957 0.178463,-0.56846 0.353885,-0.87031 0.185576,-0.31933 0.434675,-0.65058 0.745475,-0.99575 0.725791,-0.80579 1.739852,-1.56964 2.8446,-2.256813 1.331163,-0.828007 2.824738,-1.56444 4.230334,-2.180417 2.48827,-1.090439 4.910417,-1.895356 6.383378,-2.358622 2.350746,-0.73934 4.448257,-1.284927 4.747863,-1.361055 -0.390298,0.08962 -2.330299,0.511153 -4.782077,1.249938 -1.484989,0.447466 -3.909328,1.232665 -6.416762,2.314266 -1.413535,0.609739 -2.919251,1.342304 -4.265216,2.170191 -1.115236,0.685972 -2.151394,1.456532 -2.90038,2.279192 -0.319831,0.35117 -0.580865,0.6929 -0.778155,1.02723 -0.186623,0.31625 -0.316311,0.62601 -0.385744,0.93252 -0.06618,0.29216 -0.07705,0.57879 -0.03285,0.86369 0.04226,0.27238 0.13419,0.53917 0.271587,0.80568 0.131915,0.25588 0.304746,0.50969 0.51397,0.76813 0.201871,0.24936 0.43607,0.5012 0.699143,0.76379 0.500097,0.49918 1.102219,1.0321 1.750034,1.64625 0.494475,0.46907 0.996633,0.94973 1.547706,1.42043 0.53062,0.45323 1.134464,0.92214 1.900195,1.42326 0.733572,0.48007 1.626206,0.99685 2.780024,1.57538 1.109415,0.55627 2.469636,1.17442 4.191598,1.88368 l 0.0056,0.002 0.0059,0.002 c 2.819176,0.88415 6.587621,2.00261 10.748313,2.9784 3.926639,0.92091 8.376513,1.75637 12.818086,2.12294 3.234885,0.26718 6.250564,0.80361 9.577743,1.27487 3.079548,0.43618 6.276733,0.78874 9.481933,0.60359 2.934432,-0.16949 5.654077,-0.88372 8.506532,-1.68513 2.712612,-0.76211 5.568489,-1.61067 8.661169,-1.99457 2.96061,-0.50411 6.33493,-1.12917 9.33673,-1.8018 1.47267,-0.32999 2.86398,-0.6733 4.07176,-1.02035 0.59832,-0.17192 1.15285,-0.34513 1.65049,-0.51842 0.49435,-0.17216 0.93426,-0.34499 1.30589,-0.51742 1.95166,-0.75263 3.40022,-1.51526 4.58414,-2.3463 1.16084,-0.81484 2.05135,-1.68332 2.94537,-2.67336 0.58611,-0.64895 1.03457,-1.31706 1.33917,-1.99788 0.30188,-0.67476 0.46195,-1.36107 0.47433,-2.05069 0.0123,-0.68353 -0.12066,-1.36689 -0.40054,-2.04139 -0.27735,-0.66841 -0.6985,-1.32692 -1.26393,-1.96792 -0.56131,-0.63633 -1.25056,-1.24408 -2.06252,-1.827578 -0.80576,-0.579044 -1.73288,-1.134567 -2.77682,-1.670803 -2.06596,-1.061215 -4.589,-2.046703 -7.536,-2.99024 C 110.58816,92.933117 103.18448,91.498544 94.546194,90.790507 88.36845,90.28457 82.122808,90.25888 75.884559,90.158972 c -3.113879,-0.04989 -6.316862,-0.17006 -9.323233,-0.08881 -2.99115,0.08084 -5.841929,0.360909 -8.333793,1.118711 -1.356248,0.202148 -2.695368,0.335163 -4.00388,0.483142 -1.303149,0.147372 -2.570719,0.3091 -3.763001,0.568247 -1.189626,0.258569 -2.310278,0.615283 -3.324981,1.155866 -1.004521,0.53516 -1.904608,1.250178 -2.665728,2.227508 -0.936602,0.414159 -1.768262,0.976793 -2.515563,1.617691 -0.753169,0.645935 -1.42063,1.371338 -2.023679,2.104402 -0.601879,0.731642 -1.139756,1.471112 -1.634245,2.146432 -0.494427,0.67523 -0.943239,1.28317 -1.369516,1.75702 -0.550446,0.61168 -1.1648,1.24012 -1.746184,1.87525 -0.5798,0.6334 -1.129172,1.27616 -1.546666,1.91601 -0.208785,0.31998 -0.385608,0.64075 -0.517004,0.96082 -0.131349,0.31995 -0.217817,0.64046 -0.244809,0.95966 -0.02702,0.3195 0.0057,0.63661 0.111462,0.94886 0.105707,0.31199 0.283379,0.61609 0.542844,0.91114 0.272865,0.3103 0.611581,0.58905 1.004028,0.84221 0.392324,0.25308 0.839533,0.48134 1.330592,0.69036 0.981313,0.41769 2.142852,0.76066 3.401042,1.07093 1.257924,0.31019 2.616113,0.58854 3.991092,0.87604 1.375522,0.28761 2.768126,0.58442 4.0985,0.932 5.62321,1.64922 12.397722,2.6048 20.774512,3.28865 3.133808,0.25558 6.091693,0.6386 9.005472,0.92525 2.921721,0.28742 5.795942,0.47772 8.759093,0.34795 2.914831,-0.12767 6.027476,-0.42312 9.074434,-0.74695 3.070782,-0.32637 6.052062,-0.67885 8.750702,-0.92632 2.5736,-0.40558 5.07071,-0.77745 7.39376,-1.23807 2.33318,-0.46263 4.47607,-1.01218 6.30863,-1.76664 1.85151,-0.69626 3.47713,-1.48829 4.84901,-2.33899 1.38236,-0.85721 2.5081,-1.77454 3.35274,-2.71694 0.54846,-0.61175 1.00507,-1.30605 1.34676,-2.03888 0.3433,-0.73626 0.57084,-1.51188 0.65947,-2.28373 0.0891,-0.77572 0.0379,-1.5477 -0.17702,-2.27301 -0.21608,-0.72931 -0.59715,-1.40979 -1.16503,-1.9991 -0.59369,-0.61612 -1.34081,-1.17809 -2.20206,-1.703452 -0.86616,-0.528364 -1.85055,-1.021371 -2.9144,-1.495585 -2.13649,-0.952339 -4.63773,-1.847032 -7.14866,-2.790702 -5.78598,-1.825978 -12.24675,-3.241811 -20.366012,-3.902379 -2.948485,-0.239718 -6.040074,-0.171691 -9.106507,-0.03013 -3.130082,0.144502 -6.258374,0.365227 -9.268449,0.439607 -3.293509,0.08135 -6.66116,0.209695 -9.690478,0.358187 -3.101287,0.15202 -5.852326,0.325252 -7.883952,0.494875 -1.311622,0.179847 -2.52336,0.28322 -3.642763,0.376635 -1.140615,0.09519 -2.188239,0.180296 -3.187032,0.323846 -1.010128,0.145179 -1.957502,0.348619 -2.8716,0.67569 -0.924711,0.33087 -1.809782,0.786431 -2.681411,1.428159 -1.846247,0.702765 -3.430531,1.751032 -4.777801,2.882044 -1.315507,1.104348 -2.370796,2.257633 -3.208643,3.196343 -0.556961,0.62401 -1.008659,1.18717 -1.330188,1.71289 -0.159587,0.26093 -0.287762,0.51365 -0.381205,0.76136 -0.09295,0.24642 -0.15165,0.48819 -0.172649,0.72841 -0.0209,0.23908 -0.0044,0.47607 0.05219,0.71423 0.0563,0.23682 0.152118,0.47405 0.289529,0.71521 0.272482,0.47821 0.708845,0.97252 1.327891,1.51277 0.569039,0.49661 1.307885,0.96057 2.181449,1.42619 0.866592,0.46189 1.861819,0.92344 2.957033,1.422 2.145075,0.97648 4.707434,2.10853 7.300784,3.62973 l 0.0054,0.003 0.006,0.002 c 2.720234,0.88508 5.891505,2.02642 9.295656,2.9992 3.383472,0.96688 7.114055,1.80455 11.149079,2.1312 3.931303,0.31826 7.643195,-0.001 11.343467,-0.48225 3.623737,-0.47097 7.291253,-1.10641 11.018637,-1.39638 3.713547,-0.2889 7.437369,-0.38178 10.937475,-0.629 1.73646,-0.12265 3.41987,-0.28388 5.0161,-0.52812 1.58928,-0.24317 3.09566,-0.56912 4.48667,-1.02301 2.76285,-0.81332 5.20539,-1.78345 7.22465,-2.85406 1.00364,-0.53213 1.90261,-1.08905 2.68387,-1.66363 0.77843,-0.57249 1.44039,-1.16281 1.97234,-1.76375 0.51464,-0.58137 0.91483,-1.15963 1.19249,-1.7363 0.27689,-0.57508 0.432,-1.14875 0.45698,-1.72216 0.0249,-0.57193 -0.0797,-1.14178 -0.31991,-1.71053 -0.23945,-0.567 -0.61327,-1.13211 -1.12684,-1.69721 -0.52257,-0.57499 -1.19737,-1.15694 -1.99835,-1.73078 -0.79932,-0.572642 -1.72488,-1.137629 -2.75097,-1.679656 -2.04605,-1.080819 -4.49346,-2.071146 -7.13428,-2.846607 -5.33851,-1.654624 -11.9787,-2.785591 -19.781356,-3.410629 -7.861794,-0.629774 -15.27226,-1.159097 -22.342555,-0.46897 -3.306985,0.322796 -6.15645,0.971837 -8.998425,1.72158 -2.84758,0.751222 -5.67696,1.600363 -8.960211,2.32862 -2.684054,0.794197 -5.384481,1.674058 -7.667994,2.644288 -1.143452,0.485836 -2.182578,0.99442 -3.062454,1.526314 -0.880736,0.5324 -1.603777,1.08927 -2.112184,1.67166 -0.510727,0.58505 -0.876913,1.16778 -1.103911,1.74626 -0.227508,0.57979 -0.314936,1.15467 -0.268322,1.72195 0.0467,0.56832 0.227759,1.12708 0.53462,1.67389 0.30744,0.54783 0.741149,1.0837 1.292763,1.60579 0.518322,0.49058 1.119394,0.94244 1.814155,1.37386 0.696508,0.43251 1.487577,0.84472 2.383885,1.25458 1.798787,0.82255 4.029452,1.63909 6.770076,2.58815 5.322532,1.58566 12.334001,3.14666 19.779744,3.73176 3.61228,0.28385 6.832599,0.0442 9.991665,-0.2925 3.211035,-0.34226 6.323261,-0.77945 9.792935,-0.90604 1.771795,-0.0646 3.595983,0.0317 5.400945,0.16739 1.816497,0.13659 3.617104,0.31314 5.338934,0.40973 1.73287,0.0972 3.38395,0.11358 4.89623,-0.0696 0.75942,-0.092 1.48327,-0.23431 2.1641,-0.44174 0.68062,-0.20736 1.31799,-0.47975 1.90458,-0.83179 2.56509,-0.76309 4.68433,-1.95063 6.38573,-3.20713 1.72758,-1.27584 3.04166,-2.63567 3.96863,-3.72806 0.34127,-0.40215 0.60194,-0.80526 0.7865,-1.20826 0.18538,-0.40478 0.29386,-0.80923 0.33014,-1.21206 0.0364,-0.40457 -4e-5,-0.80667 -0.10386,-1.20492 -0.10424,-0.39991 -0.2763,-0.79562 -0.51028,-1.18602 -0.47092,-0.78572 -1.19365,-1.55154 -2.12416,-2.28963 -0.93957,-0.74527 -2.09317,-1.46401 -3.41937,-2.148479 -2.69545,-1.391143 -6.13881,-2.635986 -10.19128,-3.631452 -4.14502,-1.018199 -8.910331,-1.771792 -14.171146,-2.166549 -7.157717,-0.537093 -13.723587,0.312404 -19.805028,1.364263 -2.919903,0.505036 -5.301972,1.302838 -7.64496,2.055776 -2.466695,0.792692 -4.901709,1.540393 -8.024611,2.003725 l -0.0055,8.12e-4 -0.0052,0.0018 c -1.204572,0.422317 -2.453421,0.825962 -3.63026,1.211792 -1.214727,0.39826 -2.367627,0.78231 -3.423889,1.1786 -1.077009,0.40407 -2.03553,0.81435 -2.827207,1.25104 -0.402359,0.22194 -0.760737,0.45023 -1.068781,0.68726 -0.311803,0.23992 -0.572177,0.4889 -0.774266,0.74934 -0.27923,0.35986 -0.492119,0.68279 -0.642536,0.97817 -0.152411,0.29929 -0.241279,0.57149 -0.2689,0.82516 -0.01396,0.12822 -0.01225,0.25151 0.0047,0.37083 0.01711,0.12019 0.04966,0.23588 0.09688,0.34805 0.09542,0.22667 0.250163,0.43786 0.456997,0.64254 0.209646,0.20746 0.47419,0.40946 0.786879,0.61363 0.317558,0.20735 0.687392,0.41861 1.102226,0.6402 0.82952,0.44309 1.920812,0.96887 3.103304,1.56485 1.253219,0.63163 2.747947,1.25397 4.406119,1.83775 1.727641,0.60825 3.626385,1.17261 5.628151,1.66934 4.322929,1.07273 9.005005,1.80256 13.631631,2.06924 7.03428,0.40549 12.576555,0.55047 17.331378,0.30187 4.259877,-0.22272 6.92749,-0.97341 7.892734,-1.26284 0.858513,-0.25743 1.463216,-0.49566 1.567349,-0.53617 l 0.05418,-0.0211 -0.04216,-0.10835 z"
       inkscape:path-effect="#path-effect1577"
       inkscape:original-d="m 99.602227,114.28853 c -2.455929,0.95548 -5.67036,1.59794 -9.44204,1.79514 -5.397135,0.28218 -11.606294,0.0278 -17.324998,-0.30186 -9.704507,-0.55937 -18.737064,-3.09755 -23.643082,-5.5702 -4.906018,-2.47264 -6.827859,-3.05032 -4.619829,-5.89588 1.596359,-2.05728 6.890353,-3.37338 11.697708,-5.058813 6.319594,-0.937612 9.880404,-3.05817 15.670935,-4.059719 6.307172,-1.090903 12.769,-1.890471 19.790783,-1.363578 10.632746,0.797851 19.018226,3.045013 24.340086,5.791677 5.32187,2.746663 7.72462,5.976903 5.0234,9.160113 -1.87043,2.20421 -5.24193,5.40647 -10.33367,6.91918 -4.67692,2.81315 -12.596729,0.50302 -19.683276,0.76159 -6.94713,0.25345 -12.585518,1.76385 -19.77789,1.19868 -7.487118,-0.58835 -14.50331,-2.16117 -19.765314,-3.72874 -5.500857,-1.90492 -8.889881,-3.25669 -10.947178,-5.20388 -2.195928,-2.0784 -2.478717,-4.34503 -0.451318,-6.66744 2.013257,-2.30622 7.459154,-4.239736 12.811392,-5.823731 6.568493,-1.456951 11.347566,-3.404473 17.95173,-4.049103 7.061335,-0.689253 14.461247,-0.161454 22.332225,0.469056 7.781369,0.623331 14.423329,1.751417 19.769629,3.408455 5.26563,1.546217 9.77815,3.952963 11.85699,6.240373 2.03761,2.24205 1.84797,4.47138 -0.20323,6.78857 -2.11116,2.38496 -6.31015,4.63226 -11.85533,6.2647 -5.53769,1.80696 -12.957026,1.59633 -20.426754,2.17744 -7.472026,0.58128 -14.467898,2.51699 -22.352904,1.87865 -8.016221,-0.64894 -14.874097,-3.31955 -20.43144,-5.12774 -5.17531,-3.03573 -10.164172,-4.49374 -12.430454,-6.47158 -2.453416,-2.14114 -2.019577,-3.55366 0.219567,-6.06235 1.639696,-1.837087 4.243664,-4.649151 7.97117,-6.065595 3.499336,-2.580214 7.136037,-2.081067 12.359608,-2.797167 4.110535,-0.342717 11.051066,-0.690671 17.571034,-0.850879 6.081903,-0.149442 12.514845,-0.883726 18.368275,-0.406699 8.212568,0.66929 14.668558,2.108515 20.347378,3.901993 5.08021,1.910715 9.89164,3.540088 12.23712,5.976377 2.24285,2.32969 1.50048,6.07566 -0.66949,8.49356 -1.68562,1.8782 -4.48879,3.64671 -8.17579,5.03138 -3.66058,1.50513 -8.56342,2.18874 -13.67918,2.99342 -5.394225,0.49279 -12.004731,1.41446 -17.821191,1.6673 -5.919306,0.25731 -11.484927,-0.76567 -17.752427,-1.27879 -8.381826,-0.68622 -15.144364,-1.64362 -20.756052,-3.29146 -5.33218,-1.39516 -11.652452,-1.97385 -13.768583,-4.38318 -2.005778,-2.28371 1.189768,-4.96318 3.40376,-7.42054 1.72451,-1.91407 3.78912,-5.966043 7.534004,-7.604134 3.012421,-3.894521 8.257084,-3.597312 13.708128,-4.409207 4.942067,-1.503889 11.339856,-1.124323 17.626663,-1.021916 6.139527,0.100007 12.461671,0.127373 18.652514,0.635924 8.530924,0.700778 15.947354,2.119026 21.785124,4.006664 5.84218,1.871906 10.09065,3.932918 12.30923,6.449699 2.21592,2.51378 2.17122,5.29257 -0.15003,7.86147 -1.75834,1.94593 -3.53701,3.46086 -7.48252,4.98259 -2.91723,1.35304 -10.30343,2.81959 -16.32001,3.84437 -6.172682,0.76621 -11.264069,3.33864 -17.157729,3.67969 -6.292316,0.36412 -12.567505,-1.34211 -19.038866,-1.87506 -8.664414,-0.71357 -17.615863,-3.23518 -23.53632,-5.08895 -6.759398,-2.78101 -8.314866,-4.31026 -10.384345,-6.26621 -2.524985,-2.3865 -4.646926,-3.77159 -2.047773,-6.64155 2.751297,-3.037952 10.140975,-6.115783 18.285305,-8.085247" />
  </g>
</svg>
