<?xml version="1.0" encoding="UTF-8" standalone="no"?>
<!-- Created with Inkscape (http://www.inkscape.org/) -->

<svg
   version="1.1"
   id="svg824"
   width="288.69064"
   height="232.05756"
   viewBox="0 0 288.69064 232.05756"
   sodipodi:docname="indicacio.svg"
   inkscape:export-filename="C:\Users\Nando\Documents\materials Nando SanAntonio\tema5\MAC_presTema5\indicacio1v2.png"
   inkscape:export-xdpi="96"
   inkscape:export-ydpi="96"
   inkscape:version="1.1 (c68e22c387, 2021-05-23)"
   xmlns:inkscape="http://www.inkscape.org/namespaces/inkscape"
   xmlns:sodipodi="http://sodipodi.sourceforge.net/DTD/sodipodi-0.dtd"
   xmlns="http://www.w3.org/2000/svg"
   xmlns:svg="http://www.w3.org/2000/svg">
  <defs
     id="defs828">
    <inkscape:path-effect
       effect="powerstroke"
       id="path-effect32245"
       is_visible="true"
       lpeversion="1"
       offset_points="0.2,0.5 | 0.5,0.5 | 0.8,0.5"
       not_jump="false"
       sort_points="true"
       interpolator_type="CentripetalCatmullRom"
       interpolator_beta="0.2"
       start_linecap_type="zerowidth"
       linejoin_type="round"
       miter_limit="4"
       scale_width="2"
       end_linecap_type="zerowidth" />
    <inkscape:path-effect
       effect="powerstroke"
       id="path-effect32243"
       is_visible="true"
       lpeversion="1"
       offset_points="0.2,0.5 | 1.5,0.5 | 2.8,0.5"
       not_jump="false"
       sort_points="true"
       interpolator_type="CentripetalCatmullRom"
       interpolator_beta="0.2"
       start_linecap_type="zerowidth"
       linejoin_type="round"
       miter_limit="4"
       scale_width="2"
       end_linecap_type="zerowidth" />
    <inkscape:path-effect
       effect="powerstroke"
       id="path-effect32241"
       is_visible="true"
       lpeversion="1"
       offset_points="0.2,0.5 | 0.5,0.5 | 0.8,0.5"
       not_jump="false"
       sort_points="true"
       interpolator_type="CentripetalCatmullRom"
       interpolator_beta="0.2"
       start_linecap_type="zerowidth"
       linejoin_type="round"
       miter_limit="4"
       scale_width="2"
       end_linecap_type="zerowidth" />
    <inkscape:path-effect
       effect="powerstroke"
       id="path-effect32239"
       is_visible="true"
       lpeversion="1"
       offset_points="0.2,0.5 | 0.5,0.5 | 0.8,0.5"
       not_jump="false"
       sort_points="true"
       interpolator_type="CentripetalCatmullRom"
       interpolator_beta="0.2"
       start_linecap_type="zerowidth"
       linejoin_type="round"
       miter_limit="4"
       scale_width="2"
       end_linecap_type="zerowidth" />
    <inkscape:path-effect
       effect="powerstroke"
       id="path-effect31563"
       is_visible="true"
       lpeversion="1"
       offset_points="0.2,0.5 | 0.5,0.5 | 0.8,0.5"
       not_jump="false"
       sort_points="true"
       interpolator_type="CentripetalCatmullRom"
       interpolator_beta="0.2"
       start_linecap_type="zerowidth"
       linejoin_type="round"
       miter_limit="4"
       scale_width="1.7"
       end_linecap_type="zerowidth" />
    <inkscape:path-effect
       effect="powerstroke"
       id="path-effect31557"
       is_visible="true"
       lpeversion="1"
       offset_points="0.2,0.5 | 0.5,0.5 | 0.8,0.5"
       not_jump="false"
       sort_points="true"
       interpolator_type="CentripetalCatmullRom"
       interpolator_beta="0.2"
       start_linecap_type="zerowidth"
       linejoin_type="round"
       miter_limit="4"
       scale_width="1.8"
       end_linecap_type="zerowidth" />
    <inkscape:path-effect
       effect="powerstroke"
       id="path-effect31551"
       is_visible="true"
       lpeversion="1"
       offset_points="0.2,0.57429143 | 0.5,0.57429143 | 0.8,0.57429143"
       not_jump="false"
       sort_points="true"
       interpolator_type="CentripetalCatmullRom"
       interpolator_beta="0.2"
       start_linecap_type="zerowidth"
       linejoin_type="round"
       miter_limit="4"
       scale_width="1.8"
       end_linecap_type="zerowidth" />
    <inkscape:path-effect
       effect="powerstroke"
       id="path-effect31545"
       is_visible="true"
       lpeversion="1"
       offset_points="0.2,0.57429143 | 0.5,0.57429143 | 0.8,0.57429143"
       not_jump="false"
       sort_points="true"
       interpolator_type="CentripetalCatmullRom"
       interpolator_beta="0.2"
       start_linecap_type="zerowidth"
       linejoin_type="round"
       miter_limit="4"
       scale_width="2.1"
       end_linecap_type="zerowidth" />
    <inkscape:path-effect
       effect="powerstroke"
       id="path-effect31539"
       is_visible="true"
       lpeversion="1"
       offset_points="0.2,0.5 | 0.5,0.5 | 0.8,0.5"
       not_jump="false"
       sort_points="true"
       interpolator_type="CentripetalCatmullRom"
       interpolator_beta="0.2"
       start_linecap_type="zerowidth"
       linejoin_type="round"
       miter_limit="4"
       scale_width="1.8"
       end_linecap_type="zerowidth" />
    <inkscape:path-effect
       effect="powerstroke"
       id="path-effect31533"
       is_visible="true"
       lpeversion="1"
       offset_points="0.2,0.5 | 0.5,0.5 | 0.8,0.5"
       not_jump="false"
       sort_points="true"
       interpolator_type="CentripetalCatmullRom"
       interpolator_beta="0.2"
       start_linecap_type="zerowidth"
       linejoin_type="round"
       miter_limit="4"
       scale_width="1.7"
       end_linecap_type="zerowidth" />
    <inkscape:path-effect
       effect="powerstroke"
       id="path-effect31527"
       is_visible="true"
       lpeversion="1"
       offset_points="0.2,0.5 | 0.5,0.5 | 0.8,0.5"
       not_jump="false"
       sort_points="true"
       interpolator_type="CentripetalCatmullRom"
       interpolator_beta="0.2"
       start_linecap_type="zerowidth"
       linejoin_type="round"
       miter_limit="4"
       scale_width="1.8"
       end_linecap_type="zerowidth" />
    <inkscape:path-effect
       effect="powerstroke"
       id="path-effect31521"
       is_visible="true"
       lpeversion="1"
       offset_points="0.2,0.69011446 | 0.5,0.69011446 | 0.8,0.69011446"
       not_jump="false"
       sort_points="true"
       interpolator_type="CentripetalCatmullRom"
       interpolator_beta="0.2"
       start_linecap_type="zerowidth"
       linejoin_type="round"
       miter_limit="4"
       scale_width="1.8"
       end_linecap_type="zerowidth" />
    <inkscape:path-effect
       effect="powerstroke"
       id="path-effect31515"
       is_visible="true"
       lpeversion="1"
       offset_points="0.2,0.58396868 | 0.5,0.58396868 | 0.8,0.58396868"
       not_jump="false"
       sort_points="true"
       interpolator_type="CentripetalCatmullRom"
       interpolator_beta="0.2"
       start_linecap_type="zerowidth"
       linejoin_type="round"
       miter_limit="4"
       scale_width="2.1"
       end_linecap_type="zerowidth" />
    <inkscape:path-effect
       effect="powerstroke"
       id="path-effect31509"
       is_visible="true"
       lpeversion="1"
       offset_points="0.2,0.5 | 0.5,0.5 | 0.8,0.5"
       not_jump="false"
       sort_points="true"
       interpolator_type="CentripetalCatmullRom"
       interpolator_beta="0.2"
       start_linecap_type="zerowidth"
       linejoin_type="round"
       miter_limit="4"
       scale_width="1.8"
       end_linecap_type="zerowidth" />
    <inkscape:path-effect
       effect="powerstroke"
       id="path-effect31503"
       is_visible="true"
       lpeversion="1"
       offset_points="0.2,0.5 | 0.5,0.5 | 0.8,0.5"
       not_jump="false"
       sort_points="true"
       interpolator_type="CentripetalCatmullRom"
       interpolator_beta="0.2"
       start_linecap_type="zerowidth"
       linejoin_type="round"
       miter_limit="4"
       scale_width="1.7"
       end_linecap_type="zerowidth" />
    <inkscape:path-effect
       effect="powerstroke"
       id="path-effect31497"
       is_visible="true"
       lpeversion="1"
       offset_points="0.2,0.5 | 0.5,0.5 | 0.8,0.5"
       not_jump="false"
       sort_points="true"
       interpolator_type="CentripetalCatmullRom"
       interpolator_beta="0.2"
       start_linecap_type="zerowidth"
       linejoin_type="round"
       miter_limit="4"
       scale_width="1.8"
       end_linecap_type="zerowidth" />
    <inkscape:path-effect
       effect="powerstroke"
       id="path-effect31491"
       is_visible="true"
       lpeversion="1"
       offset_points="0.2,0.5 | 0.5,0.5 | 0.8,0.5"
       not_jump="false"
       sort_points="true"
       interpolator_type="CentripetalCatmullRom"
       interpolator_beta="0.2"
       start_linecap_type="zerowidth"
       linejoin_type="round"
       miter_limit="4"
       scale_width="1.8"
       end_linecap_type="zerowidth" />
    <inkscape:path-effect
       effect="powerstroke"
       id="path-effect31485"
       is_visible="true"
       lpeversion="1"
       offset_points="0.2,0.5 | 0.5,0.5 | 0.8,0.5"
       not_jump="false"
       sort_points="true"
       interpolator_type="CentripetalCatmullRom"
       interpolator_beta="0.2"
       start_linecap_type="zerowidth"
       linejoin_type="round"
       miter_limit="4"
       scale_width="2.1"
       end_linecap_type="zerowidth" />
    <inkscape:path-effect
       effect="powerstroke"
       id="path-effect31479"
       is_visible="true"
       lpeversion="1"
       offset_points="0.2,0.5 | 0.5,0.5 | 0.8,0.5"
       not_jump="false"
       sort_points="true"
       interpolator_type="CentripetalCatmullRom"
       interpolator_beta="0.2"
       start_linecap_type="zerowidth"
       linejoin_type="round"
       miter_limit="4"
       scale_width="1.8"
       end_linecap_type="zerowidth" />
    <inkscape:path-effect
       effect="powerstroke"
       id="path-effect1045"
       is_visible="true"
       lpeversion="1"
       offset_points="0.2,0.5 | 0.5,0.5 | 0.8,0.5"
       not_jump="false"
       sort_points="true"
       interpolator_type="CentripetalCatmullRom"
       interpolator_beta="0.2"
       start_linecap_type="zerowidth"
       linejoin_type="round"
       miter_limit="4"
       scale_width="1.7"
       end_linecap_type="zerowidth" />
    <inkscape:path-effect
       effect="powerstroke"
       id="path-effect1043"
       is_visible="true"
       lpeversion="1"
       offset_points="0.2,0.5 | 0.5,0.5 | 0.8,0.5"
       not_jump="false"
       sort_points="true"
       interpolator_type="CentripetalCatmullRom"
       interpolator_beta="0.2"
       start_linecap_type="zerowidth"
       linejoin_type="round"
       miter_limit="4"
       scale_width="1.8"
       end_linecap_type="zerowidth" />
    <inkscape:path-effect
       effect="powerstroke"
       id="path-effect1041"
       is_visible="true"
       lpeversion="1"
       offset_points="0.2,0.5 | 0.5,0.5 | 0.8,0.5"
       not_jump="false"
       sort_points="true"
       interpolator_type="CentripetalCatmullRom"
       interpolator_beta="0.2"
       start_linecap_type="zerowidth"
       linejoin_type="round"
       miter_limit="4"
       scale_width="1.8"
       end_linecap_type="zerowidth" />
    <inkscape:path-effect
       effect="powerstroke"
       id="path-effect1039"
       is_visible="true"
       lpeversion="1"
       offset_points="0.2,0.5 | 0.5,0.5 | 0.8,0.5"
       not_jump="false"
       sort_points="true"
       interpolator_type="CentripetalCatmullRom"
       interpolator_beta="0.2"
       start_linecap_type="zerowidth"
       linejoin_type="round"
       miter_limit="4"
       scale_width="2.1"
       end_linecap_type="zerowidth" />
    <inkscape:path-effect
       effect="powerstroke"
       id="path-effect1037"
       is_visible="true"
       lpeversion="1"
       offset_points="0.2,0.5 | 0.5,0.5 | 0.8,0.5"
       not_jump="false"
       sort_points="true"
       interpolator_type="CentripetalCatmullRom"
       interpolator_beta="0.2"
       start_linecap_type="zerowidth"
       linejoin_type="round"
       miter_limit="4"
       scale_width="1.8"
       end_linecap_type="zerowidth" />
  </defs>
  <sodipodi:namedview
     id="namedview826"
     pagecolor="#ffffff"
     bordercolor="#666666"
     borderopacity="1.0"
     inkscape:pageshadow="2"
     inkscape:pageopacity="0.0"
     inkscape:pagecheckerboard="0"
     showgrid="false"
     inkscape:zoom="1.7258649"
     inkscape:cx="170.92879"
     inkscape:cy="216.41323"
     inkscape:window-width="1920"
     inkscape:window-height="1009"
     inkscape:window-x="1912"
     inkscape:window-y="-8"
     inkscape:window-maximized="1"
     inkscape:current-layer="g830"
     inkscape:snap-global="false" />
  <g
     inkscape:groupmode="layer"
     inkscape:label="Image"
     id="g830">
    <path
       style="fill:#000080;fill-rule:nonzero;stroke:none;stroke-width:1px;stroke-linecap:butt;stroke-linejoin:miter;stroke-opacity:1"
       d="m 161.21411,90.885428 c -0.18488,1.747164 -0.55124,4.794289 -0.92572,7.985141 -0.36969,3.149971 -0.73992,6.375211 -0.95055,8.802081 -0.5371,6.18843 -0.54267,11.14837 -0.6283,13.92621 -0.0717,2.32717 -0.21501,3.69894 -0.14117,4.38411 0.0161,0.14939 0.0424,0.27003 0.0818,0.36799 0.0593,0.14745 0.16169,0.25843 0.28106,0.33175 0.10348,0.0636 0.21585,0.097 0.32067,0.11096 0.14954,0.0199 0.26998,-6.9e-4 0.32993,-0.0167 0.0572,-0.0152 0.1818,-0.0376 0.32037,-0.0731 0.0993,-0.0254 0.20392,-0.06 0.29794,-0.11806 0.10864,-0.0671 0.19924,-0.16407 0.24896,-0.29703 0.033,-0.0882 0.0532,-0.19805 0.0646,-0.33738 0.0524,-0.63863 -0.0763,-1.98647 -0.005,-4.29715 0.0868,-2.81463 0.5058,-7.84739 0.62659,-13.88575 0.0471,-2.35173 0.0402,-5.756 0.0404,-8.84607 2.1e-4,-3.238423 0.007,-6.253445 0.0384,-8.037072 z"
       id="path947"
       inkscape:path-effect="#path-effect1037"
       inkscape:original-d="m 161.21411,90.885428 c -2.10363,34.120972 -1.63227,35.891592 -1.63227,35.891592" />
    <g
       id="g32251"
       transform="translate(-13.906071,-272.32722)">
      <path
         style="fill:#000000;fill-rule:nonzero;stroke:none;stroke-width:1px;stroke-linecap:butt;stroke-linejoin:miter;stroke-opacity:1"
         d="m 111.82799,282.17735 c -1.82274,0.12517 -5.45912,0.11923 -8.78399,0.55437 -0.51007,0.0668 -1.03716,0.14488 -1.56241,0.2314 -1.993442,0.32836 -3.756727,0.74013 -4.925677,1.14959 -0.472491,0.16551 -0.858161,0.33321 -1.161593,0.50829 -0.144625,0.0835 -0.280963,0.17449 -0.404332,0.27579 -0.118423,0.0972 -0.242109,0.21799 -0.348769,0.36682 -0.105548,0.14727 -0.208437,0.34199 -0.254824,0.58039 -0.02302,0.1183 -0.03075,0.24101 -0.02062,0.36499 0.01006,0.12313 0.03698,0.23832 0.07588,0.34317 0.07683,0.2071 0.192293,0.35373 0.287889,0.44762 0.09471,0.093 0.184277,0.14894 0.243972,0.17958 a 0.7288486,0.14977797 28.457626 0 0 0.630717,0.19097 c 0.100663,-0.0668 0.201981,-0.13704 0.289709,-0.13704 0.08773,0 0.189047,0.0702 0.28971,0.13704 a 0.00108339,0.0854956 87.155797 0 0 0.084,-0.003 c 5.070058,-0.25078 10.077928,-0.50872 12.505338,-1.06373 1.53276,-0.35046 2.54583,-1.0242 3.055,-1.22904 -0.53379,-0.12758 -1.63507,-0.64471 -3.20274,-0.7655 -2.4827,-0.1913 -7.47392,0.29143 -12.525588,0.79041 l 0.084,-0.003 c -0.100663,0.0668 -0.201981,0.13704 -0.28971,0.13704 -0.08773,0 -0.189046,-0.0702 -0.289709,-0.13704 l 0.630717,0.19097 c 0.05954,0.0306 0.135793,0.0776 0.2137,0.15214 0.07885,0.0755 0.174483,0.1942 0.238944,0.36415 0.03266,0.0861 0.0552,0.18023 0.06403,0.27991 0.0089,0.10038 0.0031,0.19712 -0.01358,0.28707 -0.03346,0.18069 -0.105616,0.3092 -0.152691,0.37981 -0.04985,0.0748 -0.07912,0.10126 -0.07688,0.10512 0.0023,0.004 0.03598,-0.0162 0.100114,-0.0487 0.149811,-0.0759 0.390628,-0.18513 0.796214,-0.33594 1.070658,-0.3981 2.540355,-0.81699 4.544219,-1.36726 0.49585,-0.13617 1.01151,-0.27728 1.4936,-0.4119 3.17912,-0.88771 6.61571,-2.05999 8.38537,-2.51424 z"
         id="path32151"
         inkscape:path-effect="#path-effect32243"
         inkscape:original-d="m 111.82799,282.17735 c -17.962012,2.8971 -16.223753,4.05594 -16.223753,4.05594 h 0.579419 c 15.644334,-1.15884 15.644334,-1.15884 15.644334,-1.15884" />
      <path
         style="fill:#000000;fill-rule:nonzero;stroke:none;stroke-width:1px;stroke-linecap:butt;stroke-linejoin:miter;stroke-opacity:1"
         d="m 95.024817,288.55097 c -0.128037,7.59125 -0.669794,28.83106 -0.768219,45.54747 -0.120531,20.47087 0.231768,45.54238 0.347651,68.31357 0.115884,22.77119 0.01878,47.845 0.347652,68.31358 0.268557,16.71454 1.026463,37.94774 1.231755,45.53729 0.128037,-7.59125 0.669794,-28.83106 0.768219,-45.54747 0.120531,-20.47087 -0.231768,-45.54238 -0.347651,-68.31357 -0.115884,-22.77119 -0.01878,-47.845 -0.347652,-68.31358 -0.268557,-16.71454 -1.026463,-37.94774 -1.231755,-45.53729 z"
         id="path32153"
         inkscape:path-effect="#path-effect32239"
         inkscape:original-d="m 95.024817,288.55097 1.158839,227.71191" />
      <path
         style="fill:#000000;fill-rule:nonzero;stroke:none;stroke-width:1px;stroke-linecap:butt;stroke-linejoin:miter;stroke-opacity:1"
         d="m 110.08973,285.65387 c -0.0701,7.65044 -0.44969,29.05729 -0.4205,45.90266 0.0357,20.62884 0.57942,45.89003 0.86913,68.83505 0.28971,22.94502 0.38401,48.21189 0.86913,68.83505 0.39614,16.84074 1.31612,38.23118 1.57934,45.87741 0.0701,-7.65044 0.44969,-29.05729 0.4205,-45.90266 -0.0357,-20.62884 -0.57942,-45.89003 -0.86913,-68.83505 -0.28971,-22.94502 -0.38401,-48.21189 -0.86913,-68.83505 -0.39614,-16.84074 -1.31612,-38.23118 -1.57934,-45.87741 z"
         id="path32155"
         inkscape:path-effect="#path-effect32241"
         inkscape:original-d="m 110.08973,285.65387 2.8971,229.45017" />
      <path
         style="fill:#000000;fill-rule:nonzero;stroke:none;stroke-width:1px;stroke-linecap:butt;stroke-linejoin:miter;stroke-opacity:1"
         d="m 97.342495,518.00114 c 0.508569,0.14723 1.922378,0.74532 3.051415,0.88338 1.34718,0.16473 3.01298,-0.11589 4.51948,-0.17383 1.50649,-0.0579 3.18893,0.0939 4.51947,-0.17382 1.1151,-0.22438 2.47879,-0.92929 2.97455,-1.11515 -0.50857,-0.14723 -1.92238,-0.74532 -3.05142,-0.88338 -1.34717,-0.16473 -3.01298,0.11589 -4.51947,0.17383 -1.50649,0.0579 -3.18893,-0.0939 -4.51948,0.17382 -1.115094,0.22438 -2.478787,0.92929 -2.974545,1.11515 z"
         id="path32157"
         inkscape:path-effect="#path-effect32245"
         inkscape:original-d="m 97.342495,518.00114 15.064915,-0.57942" />
    </g>
    <rect
       style="opacity:0.990637;fill:#ffffff;stroke-width:2.91008"
       id="rect32393"
       width="30.681896"
       height="37.082855"
       x="79.654922"
       y="68.393799"
       transform="matrix(0.98200645,0.18884739,0,1,0,0)" />
    <path
       style="fill:#000080;fill-rule:nonzero;stroke:none;stroke-width:1px;stroke-linecap:butt;stroke-linejoin:miter;stroke-opacity:1"
       d="M 165.00339,91.699565 C 161.04302,91.280068 149.97624,89.91412 141.24115,89.182581 130.54806,88.287066 117.4143,87.713607 105.50088,86.97912 93.587455,86.244633 80.482716,85.200435 69.760606,84.77566 61.001808,84.428664 49.851055,84.424857 45.869145,84.354696 c 3.960373,0.419497 15.027147,1.785445 23.762237,2.516984 10.693088,0.895515 23.826849,1.468974 35.740278,2.203461 11.91342,0.734487 25.01816,1.778685 35.74027,2.20346 8.7588,0.346996 19.90955,0.350803 23.89146,0.420964 z"
       id="path949"
       inkscape:path-effect="#path-effect1039"
       inkscape:original-d="M 165.00339,91.699565 C 45.869145,84.354696 45.869145,84.354696 45.869145,84.354696" />
    <rect
       style="opacity:0.990637;fill:#ffffff;stroke-width:2.88378"
       id="rect32391"
       width="35.344597"
       height="37.082855"
       x="73.006874"
       y="31.868078" />
    <path
       style="fill:#000080;fill-rule:nonzero;stroke:none;stroke-width:1px;stroke-linecap:butt;stroke-linejoin:miter;stroke-opacity:1"
       d="m 161.05783,127.44854 c -3.74986,-0.38147 -14.22984,-1.61357 -22.49916,-2.28883 -10.12379,-0.82669 -22.55454,-1.39053 -33.83181,-2.0858 -11.277269,-0.69527 -23.68314,-1.66265 -33.831809,-2.0858 -8.289638,-0.34564 -18.841602,-0.4102 -22.609922,-0.49224 3.74986,0.38147 14.229843,1.61357 22.499158,2.28883 10.123791,0.82669 22.554541,1.39053 33.831813,2.0858 11.27727,0.69527 23.68314,1.66265 33.83181,2.0858 8.28964,0.34564 18.8416,0.4102 22.60992,0.49224 z"
       id="path951"
       inkscape:path-effect="#path-effect1041"
       inkscape:original-d="M 161.05783,127.44854 C 48.285129,120.49587 48.285129,120.49587 48.285129,120.49587" />
    <path
       style="fill:#000080;fill-rule:nonzero;stroke:none;stroke-width:1px;stroke-linecap:butt;stroke-linejoin:miter;stroke-opacity:1"
       d="m 49.861565,84.600837 c -0.790936,0.354712 -3.090339,1.205545 -4.745618,2.128272 -2.011945,1.121549 -4.240787,2.873354 -6.361181,4.310031 -2.120394,1.436676 -4.573664,2.857246 -6.361181,4.31003 -1.470636,1.195242 -3.113297,3.015362 -3.735956,3.618434 0.790936,-0.354712 3.090339,-1.205545 4.745618,-2.128272 2.011945,-1.121549 4.240787,-2.873354 6.361181,-4.310031 2.120394,-1.436676 4.573664,-2.857246 6.361181,-4.31003 1.470636,-1.195242 3.113297,-3.015362 3.735956,-3.618434 z"
       id="path953"
       inkscape:path-effect="#path-effect1043"
       inkscape:original-d="M 49.861565,84.600837 C 28.657629,98.967604 28.657629,98.967604 28.657629,98.967604" />
    <path
       style="fill:#000080;fill-rule:nonzero;stroke:none;stroke-width:1px;stroke-linecap:butt;stroke-linejoin:miter;stroke-opacity:1"
       d="m 52.277548,120.74202 c -0.691309,-0.82997 -2.515478,-3.26328 -4.147854,-4.97984 -1.990591,-2.09326 -4.723984,-4.35489 -7.085976,-6.53233 -2.361992,-2.17744 -4.838044,-4.71822 -7.085976,-6.53232 -1.843407,-1.48765 -4.416761,-3.108272 -5.300113,-3.729926 0.691309,0.829974 2.515478,3.263276 4.147854,4.979846 1.990591,2.09325 4.723984,4.35488 7.085976,6.53232 2.361992,2.17744 4.838044,4.71823 7.085976,6.53233 1.843407,1.48764 4.416761,3.10827 5.300113,3.72992 z"
       id="path955"
       inkscape:path-effect="#path-effect1045"
       inkscape:original-d="M 52.277548,120.74202 C 28.657629,98.967604 28.657629,98.967604 28.657629,98.967604" />
    <text
       xml:space="preserve"
       style="font-style:normal;font-variant:normal;font-weight:normal;font-stretch:normal;font-size:29.3333px;line-height:1.25;font-family:'Rough Rough';-inkscape-font-specification:'Rough Rough, Normal';font-variant-ligatures:normal;font-variant-caps:normal;font-variant-numeric:normal;font-variant-east-asian:normal;letter-spacing:4.23px;fill:#000080;fill-opacity:1;stroke:none;stroke-width:1.00001"
       x="54.973503"
       y="105.12777"
       id="text2523"
       transform="rotate(3.5279363)"><tspan
         sodipodi:role="line"
         id="tspan2521"
         x="54.973503"
         y="105.12777"
         style="fill:#000080;stroke-width:1.00001"
         dx="2.04">precio</tspan></text>
    <rect
       style="opacity:0.990637;fill:#ffffff;stroke-width:2.94084"
       id="rect32475"
       width="30.628111"
       height="37.937489"
       x="-115.27107"
       y="155.19612"
       transform="matrix(-0.9930593,0.11761472,-0.04429689,0.99901841,0,0)" />
    <text
       xml:space="preserve"
       style="font-style:normal;font-variant:normal;font-weight:normal;font-stretch:normal;font-size:29.3333px;line-height:1.25;font-family:'Rough Rough';-inkscape-font-specification:'Rough Rough, Normal';font-variant-ligatures:normal;font-variant-caps:normal;font-variant-numeric:normal;font-variant-east-asian:normal;letter-spacing:4.02px;fill:#d40000;fill-opacity:1;stroke:none"
       x="37.662266"
       y="57.362545"
       id="text3625"><tspan
         sodipodi:role="line"
         id="tspan3623"
         x="37.662266"
         y="57.362545"
         dx="2.3900001">producto</tspan></text>
    <rect
       style="opacity:0.990637;fill:#ffffff;stroke-width:2.88378"
       id="rect32499"
       width="30.12982"
       height="34.765179"
       x="74.16571"
       y="192.94673" />
    <text
       xml:space="preserve"
       style="font-style:normal;font-variant:normal;font-weight:normal;font-stretch:normal;font-size:29.3333px;line-height:1.25;font-family:'Rough Rough';-inkscape-font-specification:'Rough Rough, Normal';font-variant-ligatures:normal;font-variant-caps:normal;font-variant-numeric:normal;font-variant-east-asian:normal;letter-spacing:2.72px;fill:#ff00ff;fill-opacity:1;stroke:none"
       x="15.21477"
       y="219.3383"
       id="text5843"><tspan
         sodipodi:role="line"
         id="tspan5841"
         x="15.21477"
         y="219.3383">distribución</tspan></text>
    <path
       style="fill:#d40000;fill-rule:nonzero;stroke:none;stroke-width:1px;stroke-linecap:butt;stroke-linejoin:miter;stroke-opacity:1"
       d="m 31.06491,31.86808 c -0.0782,1.782192 -0.25718,4.791905 -0.456248,8.024204 -0.189949,3.084227 -0.406222,6.481627 -0.503981,8.831791 -0.251011,6.034352 -0.142451,11.083363 -0.229055,13.897994 -0.0711,2.310686 -0.282488,3.648058 -0.269474,4.288701 0.0028,0.13977 0.01624,0.250615 0.04375,0.340718 0.04144,0.135767 0.125911,0.238096 0.230209,0.311787 0.09027,0.06378 0.192595,0.104691 0.290114,0.136171 0.136127,0.04394 0.259119,0.07394 0.315266,0.09265 0.05885,0.01962 0.177792,0.04763 0.328281,0.03692 0.105485,-0.0075 0.219693,-0.03394 0.326892,-0.09101 0.123656,-0.06584 0.232666,-0.17031 0.300935,-0.313824 0.04536,-0.09536 0.07904,-0.21415 0.104299,-0.362262 0.115869,-0.679332 0.05727,-2.05732 0.128877,-4.384487 0.08547,-2.777849 0.38512,-7.728735 0.229846,-13.938487 -0.06089,-2.435226 -0.231958,-5.67714 -0.407111,-8.843891 -0.177425,-3.20785 -0.355583,-6.271745 -0.432599,-8.026974 z"
       id="path31475"
       inkscape:path-effect="#path-effect31479"
       inkscape:original-d="m 31.06491,31.86808 c 0,34.18576 -0.57942,35.92402 -0.57942,35.92402" />
    <path
       style="fill:#d40000;fill-rule:nonzero;stroke:none;stroke-width:1px;stroke-linecap:butt;stroke-linejoin:miter;stroke-opacity:1"
       d="m 27.23272,32.4475 c 3.978681,0.175 15.108537,0.857363 23.872088,1.05 10.727929,0.235817 23.872088,0 35.808132,0 11.936044,0 25.0802,0.235817 35.80813,0 8.76355,-0.192637 19.89341,-0.875 23.87209,-1.05 -3.97868,-0.175 -15.10854,-0.857363 -23.87209,-1.05 -10.72793,-0.235817 -23.872086,0 -35.80813,0 -11.936044,0 -25.080203,-0.235817 -35.808132,0 -8.763551,0.192637 -19.893407,0.875 -23.872088,1.05 z"
       id="path31481"
       inkscape:path-effect="#path-effect31485"
       inkscape:original-d="m 27.23272,32.4475 c 119.36044,0 119.36044,0 119.36044,0" />
    <path
       style="fill:#d40000;fill-rule:nonzero;stroke:none;stroke-width:1px;stroke-linecap:butt;stroke-linejoin:miter;stroke-opacity:1"
       d="m 28.97098,68.37152 c 3.766227,0.15 14.302167,0.734876 22.597364,0.9 10.155475,0.202154 22.597364,0 33.896046,0 11.298682,0 23.74057,0.202154 33.89605,0 8.29519,-0.165124 18.83113,-0.75 22.59736,-0.9 -3.76623,-0.15 -14.30217,-0.734876 -22.59736,-0.9 -10.15548,-0.202154 -22.597368,0 -33.89605,0 -11.298682,0 -23.740571,-0.202154 -33.896046,0 -8.295197,0.165124 -18.831137,0.75 -22.597364,0.9 z"
       id="path31487"
       inkscape:path-effect="#path-effect31491"
       inkscape:original-d="m 28.97098,68.37152 c 112.98682,0 112.98682,0 112.98682,0" />
    <path
       style="fill:#d40000;fill-rule:nonzero;stroke:none;stroke-width:1px;stroke-linecap:butt;stroke-linejoin:miter;stroke-opacity:1"
       d="m 142.59316,32.4475 c 0.58437,0.640245 2.11192,2.557997 3.50621,3.84147 1.69474,1.560026 4.05594,3.128866 6.08391,4.693299 2.02797,1.564433 4.14479,3.45007 6.08391,4.693299 1.59536,1.022837 3.83805,2.013552 4.60566,2.416262 -0.58437,-0.640245 -2.11192,-2.557997 -3.50621,-3.84147 -1.69474,-1.560026 -4.05594,-3.128866 -6.08391,-4.693299 -2.02797,-1.564433 -4.14479,-3.45007 -6.08391,-4.693299 -1.59536,-1.022837 -3.83805,-2.013552 -4.60566,-2.416262 z"
       id="path31493"
       inkscape:path-effect="#path-effect31497"
       inkscape:original-d="m 142.59316,32.4475 c 20.27969,15.64433 20.27969,15.64433 20.27969,15.64433" />
    <path
       style="fill:#d40000;fill-rule:nonzero;stroke:none;stroke-width:1px;stroke-linecap:butt;stroke-linejoin:miter;stroke-opacity:1"
       d="m 137.9578,68.37152 c 0.91993,-0.566118 3.58813,-2.025319 5.51959,-3.39671 2.3553,-1.672335 4.98301,-4.055938 7.47452,-6.083907 2.4915,-2.027969 5.35888,-4.117114 7.47451,-6.083907 1.73491,-1.612861 3.70536,-3.929305 4.44643,-4.715166 -0.91993,0.566118 -3.58813,2.025319 -5.51959,3.39671 -2.3553,1.672335 -4.98301,4.055938 -7.47452,6.083907 -2.4915,2.027969 -5.35888,4.117114 -7.47451,6.083907 -1.73491,1.612861 -3.70536,3.929305 -4.44643,4.715166 z"
       id="path31499"
       inkscape:path-effect="#path-effect31503"
       inkscape:original-d="M 137.9578,68.37152 C 162.87285,48.09183 162.87285,48.09183 162.87285,48.09183" />
    <g
       id="g31834"
       transform="rotate(-5.5715822,101.49048,162.24622)">
      <text
         xml:space="preserve"
         style="font-style:normal;font-variant:normal;font-weight:normal;font-stretch:normal;font-size:29.3333px;line-height:1.25;font-family:'Rough Rough';-inkscape-font-specification:'Rough Rough, Normal';font-variant-ligatures:normal;font-variant-caps:normal;font-variant-numeric:normal;font-variant-east-asian:normal;letter-spacing:3.38px;fill:#008000;fill-opacity:1;stroke:none"
         x="16.803171"
         y="168.6111"
         id="text5059"><tspan
           sodipodi:role="line"
           id="tspan5057"
           x="16.803171"
           y="168.6111">comunicación</tspan></text>
      <path
         style="fill:#008000;fill-rule:nonzero;stroke:none;stroke-width:1px;stroke-linecap:butt;stroke-linejoin:miter;stroke-opacity:1"
         d="m 13.326651,144.27548 c -0.0782,1.78219 -0.25718,4.79191 -0.456248,8.0242 -0.189949,3.08423 -0.406222,6.48163 -0.503981,8.83179 -0.251011,6.03436 -0.142451,11.08337 -0.229055,13.898 -0.0711,2.31069 -0.282487,3.64806 -0.269473,4.2887 0.0028,0.13977 0.01624,0.25062 0.04375,0.34072 0.04144,0.13577 0.125911,0.23809 0.230209,0.31179 0.09027,0.0638 0.192595,0.10469 0.290113,0.13617 0.136128,0.0439 0.25912,0.0739 0.315267,0.0926 0.05885,0.0196 0.177792,0.0476 0.328281,0.0369 0.105485,-0.008 0.219693,-0.0339 0.326892,-0.091 0.123656,-0.0658 0.232666,-0.17032 0.300935,-0.31383 0.04536,-0.0954 0.07904,-0.21415 0.104299,-0.36226 0.115869,-0.67933 0.05727,-2.05732 0.128877,-4.38449 0.08547,-2.77785 0.385119,-7.72873 0.229845,-13.93848 -0.06089,-2.43523 -0.231958,-5.67715 -0.407111,-8.8439 -0.177425,-3.20785 -0.355583,-6.27174 -0.432599,-8.02697 z"
         id="path31505"
         inkscape:path-effect="#path-effect31509"
         inkscape:original-d="m 13.326651,144.27548 c 0,34.18576 -0.579419,35.92402 -0.579419,35.92402" />
      <path
         style="fill:#008000;fill-rule:nonzero;stroke:none;stroke-width:1.16794px;stroke-linecap:butt;stroke-linejoin:miter;stroke-opacity:1"
         d="m 13.326651,144.27548 c 5.42723,0.20439 20.610066,1.00133 32.563382,1.22633 14.634576,0.27548 32.563382,0 48.845073,0 16.281694,0 34.210494,0.27548 48.845074,0 11.95331,-0.225 27.13615,-1.02194 32.56338,-1.22633 -5.42723,-0.20439 -20.61007,-1.00133 -32.56338,-1.22633 -14.63458,-0.27548 -32.56338,0 -48.845074,0 -16.281691,0 -34.210497,-0.27548 -48.845073,0 -11.953316,0.225 -27.136152,1.02194 -32.563382,1.22633 z"
         id="path31511"
         inkscape:path-effect="#path-effect31515"
         inkscape:original-d="m 13.326651,144.27548 c 162.816909,0 162.816909,0 162.816909,0" />
      <path
         style="fill:#008000;fill-rule:nonzero;stroke:none;stroke-width:1.38023px;stroke-linecap:butt;stroke-linejoin:miter;stroke-opacity:1"
         d="m 10.557708,180.1995 c 5.365016,0.20703 20.373692,1.0143 32.190098,1.24221 14.466701,0.27902 32.190099,0 48.285148,0 16.095046,0 33.818446,0.27902 48.285146,0 11.81641,-0.22791 26.82508,-1.03518 32.1901,-1.24221 -5.36502,-0.20703 -20.37369,-1.0143 -32.1901,-1.24221 -14.4667,-0.27902 -32.1901,0 -48.285146,0 -16.095049,0 -33.818447,-0.27902 -48.285148,0 -11.816406,0.22791 -26.825082,1.03518 -32.190098,1.24221 z"
         id="path31517"
         inkscape:path-effect="#path-effect31521"
         inkscape:original-d="m 10.557708,180.1995 c 160.950492,0 160.950492,0 160.950492,0" />
      <path
         style="fill:#008000;fill-rule:nonzero;stroke:none;stroke-width:1px;stroke-linecap:butt;stroke-linejoin:miter;stroke-opacity:1"
         d="m 172.14356,144.27548 c 0.58437,0.64025 2.11192,2.558 3.50621,3.84147 1.69474,1.56003 4.05594,3.12887 6.08391,4.6933 2.02797,1.56443 4.14479,3.45007 6.08391,4.6933 1.59536,1.02283 3.83805,2.01355 4.60566,2.41626 -0.58437,-0.64025 -2.11192,-2.558 -3.50621,-3.84147 -1.69474,-1.56003 -4.05594,-3.12887 -6.08391,-4.6933 -2.02797,-1.56443 -4.14479,-3.45007 -6.08391,-4.6933 -1.59536,-1.02283 -3.83805,-2.01355 -4.60566,-2.41626 z"
         id="path31523"
         inkscape:path-effect="#path-effect31527"
         inkscape:original-d="m 172.14356,144.27548 c 20.27969,15.64433 20.27969,15.64433 20.27969,15.64433" />
      <path
         style="fill:#008000;fill-rule:nonzero;stroke:none;stroke-width:1px;stroke-linecap:butt;stroke-linejoin:miter;stroke-opacity:1"
         d="m 167.5082,180.1995 c 0.91993,-0.56612 3.58813,-2.02532 5.51959,-3.39671 2.3553,-1.67234 4.98301,-4.05594 7.47452,-6.08391 2.4915,-2.02797 5.35888,-4.11711 7.47451,-6.0839 1.73491,-1.61287 3.70536,-3.92931 4.44643,-4.71517 -0.91993,0.56612 -3.58813,2.02532 -5.51959,3.39671 -2.3553,1.67234 -4.98301,4.05594 -7.47452,6.08391 -2.4915,2.02797 -5.35888,4.11711 -7.47451,6.0839 -1.73491,1.61287 -3.70536,3.92931 -4.44643,4.71517 z"
         id="path31529"
         inkscape:path-effect="#path-effect31533"
         inkscape:original-d="m 167.5082,180.1995 c 24.91505,-20.27969 24.91505,-20.27969 24.91505,-20.27969" />
    </g>
    <path
       style="fill:#ff00ff;fill-rule:nonzero;stroke:none;stroke-width:1px;stroke-linecap:butt;stroke-linejoin:miter;stroke-opacity:1"
       d="m 170.1864,193.52615 c -0.077,1.75523 -0.25517,4.81912 -0.4326,8.02697 -0.17515,3.16675 -0.34622,6.40867 -0.40711,8.8439 -0.15528,6.20975 0.14437,11.16063 0.22984,13.93848 0.0716,2.32717 0.013,3.70516 0.12887,4.38449 0.0253,0.14811 0.0589,0.2669 0.1043,0.36226 0.0683,0.14351 0.17728,0.24799 0.30094,0.31382 0.1072,0.0571 0.2214,0.0835 0.32689,0.091 0.15049,0.0107 0.26943,-0.0173 0.32828,-0.0369 0.0562,-0.0187 0.17914,-0.0487 0.31527,-0.0927 0.0975,-0.0315 0.19984,-0.0724 0.29011,-0.13617 0.1043,-0.0737 0.18877,-0.17602 0.23021,-0.31179 0.0275,-0.0901 0.0409,-0.20095 0.0437,-0.34072 0.013,-0.64064 -0.19837,-1.97801 -0.26947,-4.2887 -0.0866,-2.81463 0.022,-7.86364 -0.22905,-13.898 -0.0978,-2.35016 -0.31403,-5.74756 -0.50398,-8.83179 -0.19907,-3.23229 -0.37805,-6.24201 -0.45625,-8.0242 z"
       id="path31535"
       inkscape:path-effect="#path-effect31539"
       inkscape:original-d="m 170.1864,193.52615 c 0,34.18576 0.57941,35.92402 0.57941,35.92402" />
    <path
       style="fill:#ff00ff;fill-rule:nonzero;stroke:none;stroke-width:1.14858px;stroke-linecap:butt;stroke-linejoin:miter;stroke-opacity:1"
       d="m 176.77892,192.36731 c -5.24885,-0.201 -19.93257,-0.98474 -31.49307,-1.20601 -14.15349,-0.2709 -31.49308,0 -47.239615,0 -15.746537,0 -33.086127,-0.2709 -47.239611,0 -11.560505,0.22127 -26.244228,1.00501 -31.493074,1.20601 5.248846,0.201 19.932569,0.98474 31.493074,1.20601 14.153484,0.2709 31.493074,0 47.239611,0 15.746535,0 33.086125,0.2709 47.239615,0 11.5605,-0.22127 26.24422,-1.00501 31.49307,-1.20601 z"
       id="path31541"
       inkscape:path-effect="#path-effect31545"
       inkscape:original-d="m 176.77892,192.36731 c -157.46537,0 -157.46537,0 -157.46537,0" />
    <path
       style="fill:#ff00ff;fill-rule:nonzero;stroke:none;stroke-width:1.14858px;stroke-linecap:butt;stroke-linejoin:miter;stroke-opacity:1"
       d="m 174.48574,228.29133 c -4.96857,-0.17229 -18.86861,-0.84406 -29.81141,-1.03372 -13.39811,-0.23223 -29.8114,0 -44.717105,0 -14.905703,0 -31.318997,-0.23223 -44.717109,0 -10.9428,0.18966 -24.842838,0.86143 -29.811406,1.03372 4.968568,0.17229 18.868606,0.84406 29.811406,1.03372 13.398112,0.23223 29.811406,0 44.717109,0 14.905705,0 31.318995,0.23223 44.717105,0 10.9428,-0.18966 24.84284,-0.86143 29.81141,-1.03372 z"
       id="path31547"
       inkscape:path-effect="#path-effect31551"
       inkscape:original-d="m 174.48574,228.29133 c -149.05703,0 -149.05703,0 -149.05703,0" />
    <path
       style="fill:#ff00ff;fill-rule:nonzero;stroke:none;stroke-width:1px;stroke-linecap:butt;stroke-linejoin:miter;stroke-opacity:1"
       d="m 23.31355,192.36731 c -0.76761,0.40271 -3.010299,1.39343 -4.605661,2.41626 -1.939117,1.24323 -4.055938,3.12887 -6.083907,4.6933 -2.027969,1.56443 -4.3891758,3.13327 -6.0839073,4.6933 -1.3942995,1.28347 -2.9218458,3.20122 -3.506215,3.84147 0.7676102,-0.40271 3.010299,-1.39343 4.6056611,-2.41626 1.9391174,-1.24323 4.0559382,-3.12887 6.0839072,-4.6933 2.027969,-1.56443 4.389176,-3.13327 6.083907,-4.6933 1.394299,-1.28347 2.921846,-3.20122 3.506215,-3.84147 z"
       id="path31553"
       inkscape:path-effect="#path-effect31557"
       inkscape:original-d="M 23.31355,192.36731 C 3.0338597,208.01164 3.0338597,208.01164 3.0338597,208.01164" />
    <path
       style="fill:#ff00ff;fill-rule:nonzero;stroke:none;stroke-width:1px;stroke-linecap:butt;stroke-linejoin:miter;stroke-opacity:1"
       d="m 27.94891,228.29133 c -0.741072,-0.78586 -2.711518,-3.1023 -4.446429,-4.71517 -2.115628,-1.96679 -4.98301,-4.05593 -7.474515,-6.0839 -2.491506,-2.02797 -5.119213,-4.41157 -7.4745156,-6.08391 -1.9314564,-1.37139 -4.5996589,-2.83059 -5.5195907,-3.39671 0.7410716,0.78586 2.7115178,3.1023 4.4464294,4.71517 2.1156273,1.96679 4.9830099,4.05593 7.4745149,6.0839 2.491505,2.02797 5.119213,4.41157 7.474515,6.08391 1.931457,1.37139 4.599659,2.83059 5.519591,3.39671 z"
       id="path31559"
       inkscape:path-effect="#path-effect31563"
       inkscape:original-d="M 27.94891,228.29133 C 3.0338597,208.01164 3.0338597,208.01164 3.0338597,208.01164" />
  </g>
</svg>
