<?xml version="1.0" encoding="UTF-8" standalone="no"?>
<!-- Created with Inkscape (http://www.inkscape.org/) -->

<svg
   width="210mm"
   height="297mm"
   viewBox="0 0 210 297"
   version="1.1"
   id="svg5"
   inkscape:version="1.1 (c68e22c387, 2021-05-23)"
   sodipodi:docname="indicacio.svg"
   xmlns:inkscape="http://www.inkscape.org/namespaces/inkscape"
   xmlns:sodipodi="http://sodipodi.sourceforge.net/DTD/sodipodi-0.dtd"
   xmlns="http://www.w3.org/2000/svg"
   xmlns:svg="http://www.w3.org/2000/svg">
  <sodipodi:namedview
     id="namedview7"
     pagecolor="#ffffff"
     bordercolor="#666666"
     borderopacity="1.0"
     inkscape:pageshadow="2"
     inkscape:pageopacity="0.0"
     inkscape:pagecheckerboard="0"
     inkscape:document-units="mm"
     showgrid="false"
     inkscape:snap-global="false"
     inkscape:zoom="2.096401"
     inkscape:cx="419.05151"
     inkscape:cy="335.57511"
     inkscape:window-width="1920"
     inkscape:window-height="1017"
     inkscape:window-x="1912"
     inkscape:window-y="-8"
     inkscape:window-maximized="1"
     inkscape:current-layer="layer1" />
  <defs
     id="defs2">
    <inkscape:path-effect
       effect="powerstroke"
       id="path-effect15223"
       is_visible="true"
       lpeversion="1"
       offset_points="0.2,0.1322915 | 0.5,0.1322915 | 0.8,0.1322915"
       not_jump="false"
       sort_points="true"
       interpolator_type="CentripetalCatmullRom"
       interpolator_beta="0.2"
       start_linecap_type="zerowidth"
       linejoin_type="round"
       miter_limit="4"
       scale_width="1"
       end_linecap_type="zerowidth" />
    <inkscape:path-effect
       effect="powerstroke"
       id="path-effect15221"
       is_visible="true"
       lpeversion="1"
       offset_points="0.2,0.11703191 | 0.5,0.11703191 | 0.8,0.11703191"
       not_jump="false"
       sort_points="true"
       interpolator_type="CentripetalCatmullRom"
       interpolator_beta="0.2"
       start_linecap_type="zerowidth"
       linejoin_type="round"
       miter_limit="4"
       scale_width="1"
       end_linecap_type="zerowidth" />
    <inkscape:path-effect
       effect="powerstroke"
       id="path-effect15219"
       is_visible="true"
       lpeversion="1"
       offset_points="0.2,0.1322915 | 0.5,0.1322915 | 0.8,0.1322915"
       not_jump="false"
       sort_points="true"
       interpolator_type="CentripetalCatmullRom"
       interpolator_beta="0.2"
       start_linecap_type="zerowidth"
       linejoin_type="round"
       miter_limit="4"
       scale_width="1"
       end_linecap_type="zerowidth" />
    <inkscape:path-effect
       effect="powerstroke"
       id="path-effect15217"
       is_visible="true"
       lpeversion="1"
       offset_points="0.2,0.1322915 | 0.5,0.1322915 | 0.8,0.1322915"
       not_jump="true"
       sort_points="true"
       interpolator_type="CubicBezierSmooth"
       interpolator_beta="0.0065359477"
       start_linecap_type="zerowidth"
       linejoin_type="round"
       miter_limit="4"
       scale_width="1.5"
       end_linecap_type="zerowidth" />
    <inkscape:path-effect
       effect="roughen"
       id="path-effect1647"
       is_visible="true"
       lpeversion="1.1"
       method="size"
       max_segment_size="8.005"
       segments="8"
       displace_x="10;1"
       displace_y="10;1"
       global_randomize="1.4;-1330039669"
       handles="along"
       shift_nodes="true"
       fixed_displacement="false"
       spray_tool_friendly="false" />
    <inkscape:path-effect
       effect="powerstroke"
       id="path-effect1645"
       is_visible="true"
       lpeversion="1"
       offset_points="0.2,0.1322915 | 0.5,0.1322915 | 0.8,0.1322915"
       not_jump="false"
       sort_points="true"
       interpolator_type="CubicBezierFit"
       interpolator_beta="0.2"
       start_linecap_type="zerowidth"
       linejoin_type="round"
       miter_limit="4"
       scale_width="2.2"
       end_linecap_type="zerowidth" />
    <inkscape:path-effect
       effect="powerstroke"
       id="path-effect1643"
       is_visible="true"
       lpeversion="1"
       offset_points="0.2,0.085052997 | 0.5,0.085052997 | 0.8,0.085052997"
       not_jump="false"
       sort_points="true"
       interpolator_type="CubicBezierSmooth"
       interpolator_beta="0.31"
       start_linecap_type="zerowidth"
       linejoin_type="spiro"
       miter_limit="4"
       scale_width="1.6"
       end_linecap_type="peak" />
    <inkscape:path-effect
       effect="powerstroke"
       id="path-effect1641"
       is_visible="true"
       lpeversion="1"
       offset_points="0.2,0.085810997 | 0.5,0.085810997 | 0.8,0.085810997"
       not_jump="false"
       sort_points="true"
       interpolator_type="CubicBezierJohan"
       interpolator_beta="0.2"
       start_linecap_type="zerowidth"
       linejoin_type="round"
       miter_limit="4"
       scale_width="2"
       end_linecap_type="zerowidth" />
    <inkscape:path-effect
       effect="powerstroke"
       id="path-effect1639"
       is_visible="true"
       lpeversion="1"
       offset_points="0.2,0.1322915 | 0.5,0.1322915 | 0.8,0.1322915"
       not_jump="true"
       sort_points="true"
       interpolator_type="CubicBezierSmooth"
       interpolator_beta="0.2"
       start_linecap_type="zerowidth"
       linejoin_type="round"
       miter_limit="4"
       scale_width="1.4"
       end_linecap_type="zerowidth" />
    <inkscape:path-effect
       effect="powerstroke"
       id="path-effect1637"
       is_visible="true"
       lpeversion="1"
       offset_points="0.2,0.1322915 | 0.5,0.1322915 | 0.8,0.1322915"
       not_jump="false"
       sort_points="true"
       interpolator_type="CentripetalCatmullRom"
       interpolator_beta="0.2"
       start_linecap_type="zerowidth"
       linejoin_type="round"
       miter_limit="4"
       scale_width="1.9"
       end_linecap_type="zerowidth" />
  </defs>
  <g
     inkscape:label="Capa 1"
     inkscape:groupmode="layer"
     id="layer1">
    <g
       id="g5059"
       style="display:none">
      <rect
         style="display:inline;fill:#800000;fill-opacity:0.300813;stroke:#ff2621;stroke-width:0.805;stroke-miterlimit:4;stroke-dasharray:none;stroke-dashoffset:0;stroke-opacity:1"
         id="rect1671"
         width="31.05649"
         height="11.066106"
         x="101.02283"
         y="52.83173" />
    </g>
    <g
       id="g14915"
       transform="rotate(-4.2725239,87.013125,14.783692)"
       inkscape:export-filename="C:\Users\Nando\Documents\materials Nando SanAntonio\tema5\MAC_presTema5\indicacio.png"
       inkscape:export-xdpi="96"
       inkscape:export-ydpi="96">
      <path
         id="path6816"
         style="fill:#ff2a2a;fill-rule:nonzero;stroke:none;stroke-width:0.264583px;stroke-linecap:butt;stroke-linejoin:miter;stroke-opacity:1"
         d="m 98.771322,79.649568 c 0,0 -0.0452,-0.42299 -0.55133,-1.52148 -0.31379,-0.68106 -0.69818,-1.5159 -1.01197,-2.19697 -0.31379,-0.68106 -0.6987,-1.51599 -1.01249,-2.19706 l -0.67451,-1.46445 -0.18062,-0.0667 -0.0668,0.18062 c 0,0 0.16889,0.36604 0.67501,1.46454 0.3138,0.68106 0.69818,1.5159 1.01197,2.19697 0.31379,0.68106 0.69871,1.51599 1.01249,2.19705 0.50612,1.0985 0.79819,1.40752 0.79819,1.40752 z m 13.215368,1.90981 c 0.30329,0.0509 0.59408,0.0987 0.87956,0.14494 1.14195,0.18488 2.2047,0.34234 4.32,0.65072 1.80369,0.26294 5.56172,0.80823 11.93328,1.766 l 0.001,-3.5e-4 c -6.27557,-1.14715 -10.12943,-1.88727 -11.85688,-2.21848 -2.1383,-0.40999 -3.08276,-0.59153 -4.29294,-0.80704 -1.15456,-0.20562 -2.31581,-0.39874 -4.13709,-0.70461 -1.72369,-0.28945 -4.11209,-0.69314 -6.23284,-1.07139 -1.61837,-0.28864 -2.31856,-0.42699 -2.6856,-0.5022 -0.39947,-0.0819 -0.5501,-0.11837 -0.6659,-0.14127 -0.23256,-0.046 -0.33219,-0.0411 -0.44831,0.0338 -0.0309,0.0199 -0.0553,0.045 -0.0724,0.0791 -0.007,0.0138 -0.0116,0.0268 -0.0173,0.0432 -0.002,0.006 -0.005,0.0156 -0.008,0.0223 -0.001,0.003 -0.003,0.007 -0.005,0.0102 -0.002,0.003 -0.004,0.007 -0.008,0.009 -0.003,0.002 -0.006,0.005 -0.008,0.009 -0.002,0.003 -0.003,0.007 -0.005,0.0107 -0.002,0.007 -0.005,0.0157 -0.006,0.0231 -0.003,0.0166 -0.004,0.0334 -0.002,0.0489 0.003,0.0405 0.0181,0.0763 0.0401,0.10883 0.0836,0.12376 0.17656,0.17016 0.41309,0.21861 0.1157,0.0237 0.28769,0.0519 0.67678,0.12 0.6615,0.11572 0.78683,0.13984 2.69706,0.48053 1.98421,0.35388 4.64748,0.82475 6.23073,1.103 1.3259,0.23303 2.34799,0.41137 3.25786,0.56397 z m 17.33911,1.32922 c 0.21137,-1.01427 0.78226,-3.48554 1.04738,-4.87422 0.0576,-0.30338 0.11093,-0.59939 0.15849,-0.88254 0.22394,-1.33272 0.31498,-2.2561 0.3846,-2.80996 0.0341,-0.27103 0.0666,-0.47852 0.0866,-0.62104 0.01,-0.0725 0.0174,-0.13072 0.0213,-0.17825 0.004,-0.0493 0.004,-0.0878 -5.2e-4,-0.11953 -0.002,-0.0167 -0.007,-0.0315 -0.0122,-0.0461 -0.004,-0.009 -0.008,-0.0182 -0.0127,-0.0273 -0.003,-0.006 -0.007,-0.0121 -0.0121,-0.0188 -0.009,-0.0135 -0.0273,-0.0376 -0.0501,-0.0607 -0.0116,-0.0119 -0.029,-0.0281 -0.0511,-0.0426 -0.0114,-0.008 -0.0247,-0.0151 -0.0399,-0.0213 -0.0154,-0.006 -0.0318,-0.0108 -0.0497,-0.013 -0.018,-0.002 -0.0356,-0.002 -0.0521,10e-4 -0.0164,0.003 -0.0307,0.008 -0.0423,0.0149 -0.0235,0.0131 -0.036,0.0299 -0.0422,0.0427 -0.006,0.0136 -0.008,0.026 -0.007,0.0355 0.001,0.0102 0.004,0.0188 0.008,0.026 0.009,0.0156 0.0226,0.0274 0.0334,0.0354 0.0153,0.0114 0.0304,0.0191 0.0387,0.0227 0.007,0.003 0.0259,0.0107 0.0409,0.0189 0.0116,0.006 0.0268,0.0157 0.0371,0.0287 0.005,0.006 0.009,0.0137 0.0109,0.0228 0.002,0.008 0.002,0.0196 -0.003,0.0325 -0.005,0.0126 -0.0163,0.0278 -0.0387,0.0407 -0.0112,0.006 -0.0249,0.0116 -0.0407,0.0147 -0.0158,0.003 -0.0327,0.004 -0.0501,0.002 -0.0172,-0.002 -0.0334,-0.006 -0.0483,-0.0122 -0.0146,-0.006 -0.0273,-0.013 -0.0381,-0.02 -0.0205,-0.0131 -0.0374,-0.0283 -0.0477,-0.0378 -0.0259,-0.0239 -0.0308,-0.0299 -0.0438,-0.0392 -0.004,-0.003 -0.007,-0.005 -0.01,-0.006 -0.004,-0.002 -0.008,-0.002 -0.0102,-0.002 -0.004,10e-4 -0.008,0.006 -0.0106,0.0134 -0.004,0.0147 -0.006,0.0418 -0.006,0.0827 -6.6e-4,0.0405 -0.002,0.0923 -0.004,0.16167 -0.005,0.13785 -0.0177,0.33605 -0.0517,0.60642 -0.0681,0.54182 -0.23987,1.48922 -0.42319,2.78992 -0.0401,0.28336 -0.0798,0.58151 -0.11787,0.8872 -0.1508,1.21553 -0.40031,3.73663 -0.55114,4.95214 z M 95.248742,72.180788 c 0.24008,-0.16534 1.0575,-0.52019 1.29759,-0.68552 l 1.80062,-1.23986 c 0.36012,-0.248 1.4405,-0.99183 1.800618,-1.23984 0.24009,-0.16535 0.86309,-0.80298 1.10318,-0.96832 -0.24009,0.16534 -1.05751,0.52019 -1.297598,0.68553 l -1.80061,1.23985 c -0.36013,0.24801 -1.44059,0.99235 -1.80072,1.24036 -0.24008,0.16534 -0.863,0.80246 -1.10308,0.9678 z m 29.034728,-0.0771 c 4.18006,0.69622 5.5641,0.73949 5.5641,0.73949 0,0 -1.43351,-0.42625 -5.6854,-1.13426 l -3.97601,-0.66207 -4.24583,-0.70913 -4.35179,-0.72412 -4.3579,-0.72513 c -4.21777,-0.70231 -5.53623,-0.7338 -5.53623,-0.7338 0,0 1.46884,0.43109 5.72072,1.13909 l 3.96508,0.65863 4.35432,0.7277 4.28595,0.71368 z" />
      <text
         xml:space="preserve"
         style="font-style:normal;font-weight:normal;font-size:7.71633px;line-height:1.25;font-family:sans-serif;letter-spacing:1.04246px;fill:#ff2a2a;fill-opacity:1;stroke:none;stroke-width:0.192909"
         x="110.17226"
         y="58.905411"
         id="text6820"
         transform="rotate(9.4539167)"><tspan
           sodipodi:role="line"
           id="tspan6818"
           style="font-style:normal;font-variant:normal;font-weight:normal;font-stretch:normal;font-family:'Rough Rough';-inkscape-font-specification:'Rough Rough';fill:#ff2a2a;stroke-width:0.192909"
           x="110.17226"
           y="58.905411">Producto</tspan></text>
    </g>
    <path
       id="path12966"
       style="fill:#008000;fill-opacity:1;fill-rule:nonzero;stroke:none;stroke-width:0.288678px;stroke-linecap:butt;stroke-linejoin:miter;stroke-opacity:1"
       d="m 102.65234,95.80918 c 0,0 -0.17318,-0.395471 -1.07146,-1.316673 -0.55694,-0.571142 -1.23933,-1.27131 -1.796265,-1.842462 -0.556927,-0.571143 -1.239943,-1.271263 -1.79687,-1.842406 l -1.197292,-1.228158 -0.227542,-0.01519 -0.02539,0.192318 c 0,0 0.299617,0.306889 1.197908,1.22809 0.556939,0.571152 1.239326,1.27132 1.796265,1.842462 0.556923,0.571154 1.239963,1.271262 1.796873,1.842416 0.89829,0.921201 1.32374,1.139575 1.32374,1.139575 z m 15.79684,-1.757432 c 0.36454,-0.03355 0.71378,-0.06665 1.05641,-0.100275 1.37073,-0.132524 2.64215,-0.270273 5.17142,-0.549028 2.15668,-0.23767 6.64942,-0.735299 14.27616,-1.546954 l 9.4e-4,-6.11e-4 c -7.57012,0.602935 -12.22922,0.938847 -14.31743,1.089933 -2.58486,0.18701 -3.7267,0.269219 -5.18487,0.390995 -1.3912,0.11615 -2.7865,0.24624 -4.97577,0.44727 -2.0719,0.190716 -4.94359,0.45181 -7.49916,0.664317 -1.95018,0.16242 -2.79777,0.219669 -3.24285,0.24711 -0.48441,0.02989 -0.66867,0.03568 -0.80886,0.04511 -0.28152,0.01916 -0.3951,0.05081 -0.50768,0.154655 -0.03,0.02759 -0.0509,0.05847 -0.0609,0.09595 -0.005,0.01539 -0.005,0.02902 -0.008,0.04641 -3.5e-4,0.0071 -4.9e-4,0.01632 -0.003,0.02366 -6.1e-4,0.0041 -0.001,0.0072 -0.003,0.01122 -6.3e-4,0.0041 -0.003,0.0073 -0.006,0.0106 -0.004,0.0034 -0.005,0.0065 -0.006,0.01061 -6.3e-4,0.0041 -0.001,0.0082 -0.003,0.01172 -2.5e-4,0.0081 -4.8e-4,0.01641 2.2e-4,0.02388 0.002,0.01672 0.005,0.03317 0.0115,0.04774 0.0155,0.03813 0.0427,0.06854 0.0773,0.09401 0.13182,0.09657 0.25241,0.11598 0.53924,0.09828 0.14027,-0.009 0.34683,-0.02824 0.8153,-0.06881 0.79643,-0.06906 0.94803,-0.07915 3.24987,-0.271164 2.39101,-0.199107 5.59911,-0.470403 7.50576,-0.633294 1.59676,-0.136376 2.82726,-0.2428 3.92091,-0.343424 z m 20.38953,-3.440093 c -0.0462,-1.035382 -0.0943,-3.573314 -0.18561,-4.984293 -0.0206,-0.308134 -0.0434,-0.608064 -0.0695,-0.893986 -0.12318,-1.345786 -0.28191,-2.260798 -0.35995,-2.813726 -0.0382,-0.270573 -0.0601,-0.479448 -0.0776,-0.622321 -0.009,-0.0727 -0.0172,-0.13078 -0.0266,-0.177623 -0.01,-0.04862 -0.0203,-0.08578 -0.0348,-0.11509 -0.007,-0.01547 -0.0165,-0.02859 -0.0272,-0.04106 -0.007,-0.0074 -0.014,-0.01547 -0.0226,-0.0228 -0.005,-0.0045 -0.0116,-0.0097 -0.0194,-0.01477 -0.0146,-0.01049 -0.0422,-0.02881 -0.0752,-0.04493 -0.0169,-0.0085 -0.0416,-0.01913 -0.0711,-0.02713 -0.0154,-0.0046 -0.0329,-0.0078 -0.0522,-0.0097 -0.0196,-0.0022 -0.0398,-0.0013 -0.0611,6.62e-4 -0.0213,0.0027 -0.0417,0.0079 -0.0597,0.0156 -0.0181,0.0077 -0.033,0.01653 -0.0446,0.02594 -0.0233,0.01904 -0.033,0.03862 -0.0365,0.0527 -0.004,0.0148 -0.001,0.02715 0.002,0.03614 0.005,0.0096 0.01,0.01708 0.017,0.02282 0.0143,0.01273 0.0339,0.02025 0.0487,0.025 0.0209,0.0071 0.0406,0.01018 0.0512,0.01131 0.008,0.0013 0.0329,0.003 0.0526,0.0071 0.0152,0.0026 0.0354,0.0079 0.051,0.01755 0.007,0.0043 0.0143,0.01083 0.0191,0.01901 0.005,0.0076 0.008,0.01836 0.005,0.03227 -0.003,0.01361 -0.0109,0.03124 -0.033,0.04977 -0.0111,0.0091 -0.0254,0.01793 -0.0427,0.02527 -0.0174,0.0076 -0.0366,0.01244 -0.0572,0.01566 -0.0204,0.0027 -0.0404,0.003 -0.0591,0.0015 -0.0184,-0.0013 -0.0351,-0.0048 -0.0496,-0.0088 -0.0275,-0.0075 -0.0512,-0.01713 -0.0658,-0.02351 -0.0367,-0.01597 -0.0441,-0.0204 -0.0617,-0.0259 -0.005,-0.0015 -0.0103,-0.0031 -0.0134,-0.0038 -0.005,-5.33e-4 -0.0101,-7e-5 -0.0122,0.0011 -0.005,0.0025 -0.007,0.0077 -0.009,0.01586 -5.8e-4,0.01542 0.005,0.04193 0.0156,0.0816 0.0107,0.03918 0.0244,0.08943 0.0411,0.157067 0.0334,0.134325 0.0758,0.328785 0.11385,0.598709 0.0764,0.540907 0.14966,1.500991 0.30971,2.804911 0.0345,0.284129 0.0743,0.582356 0.1178,0.887424 0.17369,1.212907 0.60691,3.711362 0.78056,4.924273 z M 96.450813,89.567999 c 0.229766,-0.224777 1.071559,-0.789459 1.301325,-1.014236 l 1.723259,-1.685621 c 0.344644,-0.33716 1.378603,-1.34846 1.723243,-1.68562 0.22976,-0.224776 0.7663,-1.009151 0.99607,-1.233918 -0.22977,0.224767 -1.07156,0.789459 -1.30133,1.014226 l -1.723238,1.68563 c -0.344643,0.337159 -1.378567,1.348969 -1.72321,1.686128 -0.229767,0.224777 -0.766353,1.008634 -0.996119,1.233411 z M 129.9348,81.587282 c 5.02294,-0.467065 6.63249,-0.80223 6.63248,-0.802229 0,0 -1.77618,-0.02058 -6.88539,0.454669 l -4.7777,0.444412 -5.10252,0.472619 -5.22909,0.486914 -5.23644,0.487606 c -5.06821,0.471456 -6.59872,0.800122 -6.59872,0.800122 0,0 1.81836,0.01562 6.92758,-0.459627 l 4.76404,-0.445151 5.23308,-0.483759 5.15012,-0.479055 z"
       inkscape:export-filename="C:\Users\Nando\Documents\materials Nando SanAntonio\tema5\MAC_presTema5\indicacio.png"
       inkscape:export-xdpi="96"
       inkscape:export-ydpi="96" />
    <text
       xml:space="preserve"
       style="font-style:normal;font-weight:normal;font-size:7.71633px;line-height:1.25;font-family:sans-serif;letter-spacing:1.04246px;fill:#008000;fill-opacity:1;stroke:none;stroke-width:0.192909"
       x="91.821754"
       y="101.19846"
       id="text12970"
       transform="rotate(-5.314261)"
       inkscape:export-filename="C:\Users\Nando\Documents\materials Nando SanAntonio\tema5\MAC_presTema5\indicacio.png"
       inkscape:export-xdpi="96"
       inkscape:export-ydpi="96"><tspan
         sodipodi:role="line"
         id="tspan12968"
         style="font-style:normal;font-variant:normal;font-weight:normal;font-stretch:normal;font-family:'Rough Rough';-inkscape-font-specification:'Rough Rough';fill:#008000;fill-opacity:1;stroke-width:0.192909"
         x="91.821754"
         y="101.19846">Promoción</tspan></text>
    <path
       id="path1434"
       style="fill:#0000ff;fill-rule:nonzero;stroke:none;stroke-width:0.264583px;stroke-linecap:butt;stroke-linejoin:miter;stroke-opacity:1"
       d="m 131.69428,52.257309 c 0,0 0.11407,0.40981 0.79375,1.41025 0.4214,0.62027 0.93769,1.38063 1.35909,2.00091 0.42139,0.62027 0.93821,1.38064 1.3596,2.00091 l 0.90589,1.33377 0.18914,0.0362 0.0362,-0.18914 c 0,0 -0.22673,-0.33332 -0.90641,-1.33376 -0.4214,-0.62028 -0.93769,-1.38064 -1.35909,-2.00091 -0.42139,-0.62028 -0.93822,-1.38064 -1.3596,-2.00092 -0.67968,-1.00044 -1.01855,-1.25728 -1.01855,-1.25728 z m -13.34958,0.2868 c -0.30752,-3.6e-4 -0.60221,2.5e-4 -0.89141,0.002 -1.15682,0.005 -2.23099,0.0244 -4.36821,0.0677 -1.82239,0.0369 -5.61894,0.11628 -12.06128,0.21807 l -10e-4,5.2e-4 c 6.37875,0.10079 10.30186,0.19784 12.06024,0.24081 2.17659,0.0532 3.13805,0.0771 4.36718,0.0909 1.17266,0.0132 2.34985,0.0129 4.19664,0.0155 1.74783,0.002 4.17009,0.008 6.32416,0.0331 1.64381,0.0189 2.35721,0.0404 2.73162,0.0543 0.40749,0.0151 0.56207,0.0264 0.68006,0.03 0.23696,0.007 0.33443,-0.014 0.43667,-0.10697 0.0272,-0.0247 0.0471,-0.0535 0.0584,-0.0899 0.005,-0.0149 0.007,-0.0284 0.01,-0.0455 0.001,-0.007 0.002,-0.0162 0.004,-0.0233 8.2e-4,-0.004 0.002,-0.007 0.003,-0.0109 0.001,-0.004 0.003,-0.007 0.006,-0.01 0.003,-0.003 0.005,-0.006 0.006,-0.01 0.001,-0.004 0.002,-0.008 0.003,-0.0114 0.001,-0.008 0.002,-0.0163 0.002,-0.0238 -1.1e-4,-0.0168 -0.002,-0.0335 -0.006,-0.0486 -0.01,-0.0394 -0.0304,-0.0722 -0.0574,-0.10077 -0.10275,-0.10836 -0.20211,-0.13886 -0.44339,-0.1478 -0.11803,-0.004 -0.2923,-0.004 -0.68729,-0.007 -0.67153,-0.005 -0.79912,-0.009 -2.73937,-0.031 -2.01538,-0.0232 -4.71982,-0.0502 -6.32726,-0.0646 -1.34618,-0.0121 -2.38368,-0.0201 -3.30626,-0.0212 z m -17.32194,1.53686 c -0.0419,1.03521 -0.19912,3.56669 -0.23254,4.98006 -0.007,0.30872 -0.011,0.60947 -0.0114,0.89658 -0.002,1.35141 0.0599,2.27719 0.0822,2.83497 0.0109,0.27295 0.0129,0.48295 0.0165,0.62683 0.002,0.0732 0.004,0.13181 0.008,0.17932 0.004,0.0493 0.0103,0.0873 0.0202,0.11782 0.005,0.0161 0.0116,0.03 0.0196,0.0434 0.005,0.008 0.0105,0.0167 0.0171,0.0248 0.004,0.005 0.009,0.0107 0.015,0.0165 0.0114,0.0118 0.0331,0.0326 0.0594,0.0517 0.0134,0.01 0.0333,0.0229 0.0574,0.0336 0.0125,0.006 0.0269,0.0108 0.0429,0.0145 0.0162,0.004 0.0332,0.005 0.0512,0.005 0.0181,-7.5e-4 0.0355,-0.004 0.0512,-0.01 0.0157,-0.006 0.0289,-0.0134 0.0393,-0.0217 0.021,-0.0168 0.0306,-0.0354 0.0346,-0.0491 0.004,-0.0144 0.003,-0.0269 0.001,-0.0362 -0.003,-0.01 -0.007,-0.0179 -0.0124,-0.0243 -0.011,-0.014 -0.0268,-0.0233 -0.0388,-0.0294 -0.017,-0.009 -0.0332,-0.0139 -0.0419,-0.016 -0.007,-0.002 -0.0273,-0.006 -0.0434,-0.0119 -0.0125,-0.004 -0.029,-0.0111 -0.0413,-0.0222 -0.006,-0.005 -0.0111,-0.0121 -0.0145,-0.0207 -0.003,-0.008 -0.005,-0.019 -0.002,-0.0326 0.003,-0.0133 0.0115,-0.0301 0.0315,-0.0465 0.01,-0.008 0.0226,-0.0155 0.0377,-0.0212 0.0151,-0.006 0.0316,-0.009 0.0491,-0.0103 0.0173,-8.3e-4 0.034,7.7e-4 0.0496,0.004 0.0153,0.003 0.029,0.008 0.0408,0.0134 0.0224,0.01 0.0415,0.0218 0.0532,0.0295 0.0295,0.0193 0.0353,0.0244 0.0496,0.0315 0.004,0.002 0.008,0.004 0.0109,0.005 0.004,10e-4 0.008,10e-4 0.0103,0 0.004,-0.002 0.007,-0.007 0.008,-0.015 0.002,-0.0153 -0.001,-0.0422 -0.007,-0.0827 -0.006,-0.04 -0.0134,-0.0913 -0.0222,-0.1602 -0.0175,-0.13684 -0.0378,-0.33439 -0.0486,-0.60668 -0.0218,-0.54566 -0.008,-1.5084 -0.0408,-2.82154 -0.007,-0.2861 -0.0168,-0.58673 -0.0295,-0.89452 -0.0509,-1.22378 -0.21888,-3.75162 -0.26975,-4.9754 z m 35.37304,4.96507 c -0.20967,0.20253 -0.9577,0.68682 -1.16737,0.88935 l -1.57252,1.51877 c -0.3145,0.30379 -1.25801,1.21498 -1.57251,1.51877 -0.20967,0.20253 -0.71947,0.93384 -0.92914,1.13636 0.20967,-0.20252 0.9577,-0.68682 1.16737,-0.88934 l 1.57251,-1.51878 c 0.3145,-0.30379 1.25802,-1.21549 1.57252,-1.51928 0.20967,-0.20253 0.71947,-0.93332 0.92914,-1.13585 z m -28.62771,4.84518 c -4.23765,-1.6e-4 -5.61,0.18449 -5.60999,0.18449 0,0 1.48404,0.185 5.79448,0.185 h 4.03076 l 4.30464,0.002 4.41162,-5.1e-4 4.41782,-5.2e-4 c 4.27584,-2e-5 5.58157,-0.18552 5.58157,-0.18552 0,0 -1.51971,-0.18397 -5.83014,-0.18397 l -4.01939,0.002 -4.41472,-0.003 h -4.34495 z"
       inkscape:export-filename="C:\Users\Nando\Documents\materials Nando SanAntonio\tema5\MAC_presTema5\indicacio.png"
       inkscape:export-xdpi="96"
       inkscape:export-ydpi="96" />
    <text
       xml:space="preserve"
       style="font-style:normal;font-weight:normal;font-size:7.71633px;line-height:1.25;font-family:sans-serif;letter-spacing:1.04246px;fill:#0000ff;fill-opacity:1;stroke:none;stroke-width:0.192909"
       x="104.85995"
       y="60.556293"
       id="text4181"
       inkscape:export-filename="C:\Users\Nando\Documents\materials Nando SanAntonio\tema5\MAC_presTema5\indicacio.png"
       inkscape:export-xdpi="96"
       inkscape:export-ydpi="96"><tspan
         sodipodi:role="line"
         id="tspan4179"
         style="font-style:normal;font-variant:normal;font-weight:normal;font-stretch:normal;font-family:'Rough Rough';-inkscape-font-specification:'Rough Rough';fill:#0000ff;stroke-width:0.192909"
         x="104.85995"
         y="60.556293"
         dx="2.4300001">Precio</tspan></text>
    <g
       id="g15085"
       transform="rotate(7.4840594,-319.26948,72.707337)"
       inkscape:export-filename="C:\Users\Nando\Documents\materials Nando SanAntonio\tema5\MAC_presTema5\indicacio.png"
       inkscape:export-xdpi="96"
       inkscape:export-ydpi="96"
       style="fill:#cc00ff">
      <path
         id="path13850"
         style="fill:#cc00ff;fill-rule:nonzero;stroke:none;stroke-width:0.288678px;stroke-linecap:butt;stroke-linejoin:miter;stroke-opacity:1"
         d="m 132.46021,35.929937 c 0,0 0.18927,0.388023 1.12465,1.271542 0.57994,0.547779 1.29052,1.21932 1.87046,1.767109 0.57992,0.54778 1.29113,1.219248 1.87105,1.767028 l 1.24675,1.177932 0.22797,0.0058 0.0175,-0.193199 c 0,0 -0.31197,-0.294321 -1.24735,-1.177839 -0.57994,-0.547789 -1.29052,-1.219331 -1.87045,-1.76711 -0.57993,-0.54779 -1.29115,-1.219246 -1.87106,-1.767038 -0.93538,-0.883518 -1.36945,-1.084229 -1.36945,-1.084229 z m -15.71132,2.404934 c -0.36286,0.0485 -0.71045,0.09591 -1.05141,0.14359 -1.36412,0.188726 -2.62882,0.378594 -5.14449,0.761023 -2.1451,0.326072 -6.6136,1.007857 -14.20053,2.132156 l -9.22e-4,6.49e-4 c 7.538942,-0.913429 12.180302,-1.440467 14.260542,-1.677216 2.575,-0.293046 3.7125,-0.422096 5.16444,-0.603676 1.38524,-0.173206 2.77403,-0.36051 4.95318,-0.651312 2.06232,-0.275675 4.92086,-0.654526 7.46554,-0.971844 1.94187,-0.242404 2.7864,-0.334426 3.22998,-0.380129 0.48277,-0.04977 0.66664,-0.06313 0.80633,-0.0783 0.28049,-0.03071 0.39269,-0.067 0.5009,-0.175383 0.0288,-0.0288 0.0484,-0.0605 0.0569,-0.09837 0.004,-0.01557 0.004,-0.02925 0.006,-0.04668 2.5e-4,-0.0071 2.2e-4,-0.01638 0.002,-0.02373 4.3e-4,-0.0041 0.001,-0.0073 0.002,-0.01128 6.5e-4,-0.0041 0.003,-0.0074 0.006,-0.01086 0.003,-0.0035 0.005,-0.0067 0.006,-0.01086 6.6e-4,-0.0041 0.001,-0.0082 0.002,-0.01178 1.2e-4,-0.0081 2e-4,-0.01647 -8e-4,-0.02391 -0.002,-0.01663 -0.007,-0.03288 -0.0135,-0.04722 -0.017,-0.03746 -0.0455,-0.06673 -0.0812,-0.09075 -0.13568,-0.09107 -0.25698,-0.105511 -0.54283,-0.07604 -0.13978,0.01479 -0.34538,0.04247 -0.81179,0.102245 -0.79293,0.101723 -0.94399,0.118028 -3.23601,0.404452 -2.38081,0.297169 -5.57505,0.700034 -7.4734,0.941118 -1.58981,0.20186 -2.8149,0.358748 -3.90348,0.504217 z m -20.230971,4.274853 c 0.08869,1.03261 0.241049,3.566421 0.390235,4.972458 0.03327,0.307026 0.06835,0.605767 0.106168,0.890376 0.17836,1.33959 0.374547,2.247308 0.475245,2.796562 0.04931,0.268774 0.07971,0.476576 0.103073,0.618608 0.01175,0.07228 0.02255,0.129964 0.03384,0.176382 0.01153,0.04819 0.02384,0.08488 0.03951,0.113564 0.0081,0.01516 0.01768,0.02789 0.02888,0.0399 0.007,0.0071 0.01462,0.01488 0.02353,0.02186 0.0056,0.0043 0.01203,0.0092 0.01994,0.01396 0.01505,0.0099 0.0434,0.02705 0.07697,0.0418 0.01719,0.0078 0.0423,0.01741 0.07217,0.02418 0.01557,0.004 0.03316,0.0064 0.05258,0.0076 0.01966,0.0014 0.03981,-3.16e-4 0.06102,-0.0032 0.02121,-0.0036 0.04139,-0.0096 0.05902,-0.01804 0.01773,-0.0084 0.0323,-0.01787 0.04349,-0.02775 0.02253,-0.01999 0.03135,-0.03994 0.03428,-0.05416 0.003,-0.01494 3.74e-4,-0.02719 -0.0038,-0.03601 -0.0053,-0.0094 -0.01032,-0.01667 -0.01791,-0.02211 -0.01485,-0.01213 -0.03472,-0.01883 -0.04971,-0.02297 -0.02122,-0.0062 -0.041,-0.0085 -0.05159,-0.0092 -0.0082,-9.14e-4 -0.03301,-0.0016 -0.05283,-0.0049 -0.0153,-0.002 -0.03567,-0.0064 -0.05172,-0.01544 -0.0076,-0.004 -0.0147,-0.01023 -0.01991,-0.01821 -0.005,-0.0074 -0.0085,-0.01803 -0.0063,-0.03204 0.0022,-0.01372 0.0096,-0.03166 0.03096,-0.05109 0.01073,-0.0095 0.02459,-0.01895 0.04167,-0.027 0.01704,-0.0083 0.03606,-0.01394 0.0565,-0.018 0.02031,-0.0036 0.04024,-0.0046 0.05901,-0.0039 0.01844,5.44e-4 0.03526,0.0033 0.04995,0.0068 0.0278,0.0063 0.05187,0.01501 0.06667,0.02079 0.03736,0.01444 0.04488,0.01858 0.06268,0.02335 0.0052,0.0013 0.01044,0.0026 0.01355,0.0032 0.0051,3.24e-4 0.01004,-3.43e-4 0.01219,-0.0016 0.0047,-0.0026 0.007,-0.008 0.0079,-0.0162 -6e-5,-0.01543 -0.0066,-0.04169 -0.01896,-0.08089 -0.01228,-0.03871 -0.02804,-0.08835 -0.04754,-0.155244 -0.03888,-0.132841 -0.08922,-0.325394 -0.138342,-0.593527 -0.09858,-0.53731 -0.211202,-1.493575 -0.424692,-2.789819 -0.04611,-0.282473 -0.09812,-0.578813 -0.154158,-0.881835 -0.223368,-1.204747 -0.758873,-3.683294 -0.982202,-4.888047 z m 42.395021,-0.698657 c -0.22034,0.234027 -1.03822,0.832816 -1.25856,1.066843 l -1.65256,1.754996 c -0.3305,0.351034 -1.32205,1.40396 -1.65255,1.754994 -0.22034,0.234026 -0.7242,1.039782 -0.94454,1.273799 0.22034,-0.234017 1.03823,-0.832817 1.25856,-1.066834 l 1.65255,-1.755004 c 0.33051,-0.351034 1.32199,-1.404467 1.65249,-1.755501 0.22034,-0.234026 0.72427,-1.039266 0.94461,-1.273293 z m -33.12788,9.34961 c -4.99951,0.673028 -6.593933,1.074035 -6.593923,1.074034 0,0 1.775523,-0.05241 6.860893,-0.737158 l 4.75541,-0.64032 5.07879,-0.681846 5.20468,-0.70133 5.21198,-0.702324 c 5.04457,-0.679276 6.5603,-1.070544 6.5603,-1.070544 0,0 -1.81749,0.0591 -6.90287,0.743847 l -4.74172,0.640497 -5.2088,0.698342 -5.12609,0.690233 z" />
      <text
         xml:space="preserve"
         style="font-style:normal;font-weight:normal;font-size:6.5139px;line-height:1.25;font-family:sans-serif;letter-spacing:0.880014px;fill:#cc00ff;fill-opacity:1;stroke:none;stroke-width:0.162848"
         x="86.35025"
         y="64.916794"
         id="text13854"
         transform="matrix(1.0422402,-0.14033948,0.12689385,0.94238525,0,0)"><tspan
           sodipodi:role="line"
           id="tspan13852"
           style="font-style:normal;font-variant:normal;font-weight:normal;font-stretch:normal;font-family:'Rough Rough';-inkscape-font-specification:'Rough Rough';fill:#cc00ff;stroke-width:0.162848"
           x="86.35025"
           y="64.916794">Distribución</tspan></text>
    </g>
  </g>
</svg>
